<?xml version="1.0" encoding="UTF-8"?>
<svg version="1.1" xmlns="http://www.w3.org/2000/svg" width="512" height="512">
<path d="M0 0 C0.69688523 -0.00235223 1.39377046 -0.00470446 2.11177343 -0.00712797 C4.45244892 -0.01379739 6.79306864 -0.01336037 9.13375282 -0.01294994 C10.82679632 -0.01624986 12.51983902 -0.0199757 14.21288073 -0.02409142 C18.87007438 -0.03410522 23.52725513 -0.03782723 28.18445802 -0.04048073 C33.20584107 -0.0443857 38.22721393 -0.053964 43.24859047 -0.0626936 C55.37868243 -0.08245396 67.50877521 -0.09252429 79.63887924 -0.10142139 C85.35311973 -0.10580553 91.06735929 -0.11117207 96.78159904 -0.11641026 C115.78111961 -0.13342313 134.78063961 -0.14791641 153.78016663 -0.155159 C158.7104168 -0.15706885 163.64066697 -0.15898919 168.57091713 -0.16094494 C170.40897381 -0.16167055 170.40897381 -0.16167055 172.28416295 -0.16241082 C192.12597672 -0.17070775 211.96773013 -0.19603873 231.80951755 -0.22852562 C252.1872631 -0.26161756 272.56497801 -0.27960974 292.94275057 -0.28280324 C304.38135814 -0.2849665 315.81987774 -0.29368812 327.25845909 -0.31926441 C337.00210306 -0.34100065 346.74563769 -0.34900747 356.48930316 -0.33929763 C361.45723538 -0.33476125 366.42494213 -0.33660057 371.39284325 -0.35605907 C375.94929805 -0.37375114 380.50536392 -0.37264427 385.0618232 -0.35716178 C386.70190762 -0.35479484 388.3420194 -0.35906136 389.98206215 -0.37099043 C409.74360932 -0.50571533 426.27567862 4.32257134 440.99230385 18.13422108 C459.19428593 36.9748692 460.14877982 58.17817526 460.12169838 82.97894764 C460.12305544 85.07295735 460.12483708 87.16696682 460.12700844 89.26097584 C460.13154766 94.92025595 460.12980739 100.57951773 460.12662935 106.23879814 C460.12408622 112.1823535 460.12644884 118.12590735 460.12801552 124.06946278 C460.12983209 134.0524775 460.12744494 144.03548482 460.12267494 154.01849842 C460.11723928 165.52687082 460.11899199 177.03522549 460.12450135 188.54359746 C460.12905421 198.45398778 460.12967223 208.36437279 460.12706268 218.27476382 C460.12551107 224.1805788 460.12527522 230.08638547 460.12859917 235.9921999 C460.13150934 241.55071108 460.12944494 247.10919964 460.12370491 252.6677084 C460.12239381 254.69604486 460.122743 256.72438326 460.12496758 258.75271893 C460.15196404 285.89111787 458.76450589 310.27215942 438.6524601 330.54437733 C437.77460854 331.39902576 436.89675697 332.2536742 435.99230385 333.13422108 C435.28976479 333.83418201 434.58722572 334.53414295 433.8633976 335.25531483 C426.49695895 342.17530265 417.28996001 346.61801975 407.17980385 347.44672108 C395.99686458 347.07900354 388.32306845 341.84022943 380.86730385 333.94672108 C376.95972565 329.40589898 370.99230385 322.3896174 370.99230385 316.13422108 C370.0547016 316.13790825 369.11709934 316.14159542 368.1510849 316.14539433 C345.34158306 316.23417599 322.53210362 316.29991622 299.72246552 316.34146976 C288.69190647 316.36209866 277.66146153 316.39022561 266.63097572 316.43597889 C257.01727158 316.47583652 247.40365008 316.50165151 237.78986561 316.51057506 C232.69898571 316.5157916 227.60834223 316.52805933 222.51753807 316.5571413 C217.72574202 316.58429334 212.93427977 316.59266646 208.14241409 316.5866518 C206.38400331 316.58775213 204.62558135 316.5957073 202.86723709 316.61104298 C200.46482164 316.63096804 198.06366367 316.62615176 195.66121864 316.61523914 C194.96665215 316.62689051 194.27208566 316.63854187 193.55647171 316.65054631 C188.60416057 316.58981225 185.80031502 315.23947265 181.99230385 312.13422108 C179.51263073 308.4147114 179.57394261 305.43985551 179.99230385 301.13422108 C181.12723647 297.63484551 182.96532265 296.15220854 185.99230385 294.13422108 C184.19792885 293.29890858 184.19792885 293.29890858 182.36730385 292.44672108 C173.36705908 287.83568018 169.80867141 282.48245692 165.99230385 273.13422108 C164.89431646 268.73879844 164.66350667 264.31004353 164.43761635 259.80218983 C164.39557076 258.97575474 164.35352516 258.14931965 164.31020546 257.29784107 C163.81959857 246.68429658 163.84140544 236.06924463 163.86730385 225.44672108 C163.86863319 223.87120472 163.86863319 223.87120472 163.8699894 222.26385975 C163.88493197 207.18910397 164.15591645 192.1891942 164.99230385 177.13422108 C158.06230385 177.13422108 151.13230385 177.13422108 143.99230385 177.13422108 C144.05543258 189.0355559 144.13102106 200.93663774 144.22801876 212.83774567 C144.27258074 218.36502252 144.31186756 223.89222806 144.3387394 229.41962147 C144.36491441 234.7625274 144.40541558 240.1051568 144.45549011 245.44789028 C144.47206335 247.4773948 144.48363662 249.50694704 144.48991776 251.53650951 C144.54317631 267.17592022 145.78034681 280.03319598 153.29503822 294.02289295 C155.83749047 299.01817483 156.5203085 302.51601427 155.99230385 308.13422108 C153.90075506 312.1679223 152.23992036 314.52350811 147.99230385 316.13422108 C145.14417458 316.38869667 145.14417458 316.38869667 141.78356361 316.39491749 C140.50804131 316.4020023 139.232519 316.4090871 137.9183445 316.4163866 C136.50679934 316.41409275 135.09525453 316.41158304 133.6837101 316.40887928 C132.19521771 316.41322729 130.70672756 316.41841074 129.21824074 316.42436695 C125.17438723 316.43776662 121.13062714 316.43833397 117.08675575 316.43580365 C113.70514679 316.43473342 110.32355668 316.43961925 106.94195175 316.44440907 C98.95497795 316.45551011 90.96805117 316.45593997 82.98107338 316.44989491 C74.76279897 316.44386981 66.54469639 316.45612738 58.3264513 316.47746497 C51.25786535 316.49513768 44.18933379 316.50107296 37.12072659 316.49782723 C32.90503015 316.49602138 28.68945597 316.49857923 24.47377968 316.51254177 C20.5010447 316.52520603 16.52857471 316.52309565 12.55584335 316.51013088 C11.10635281 316.50778317 9.65684314 316.51043415 8.20737457 316.51875401 C-8.82346152 316.60937254 -23.13668198 312.91104204 -35.88269615 301.07172108 C-46.16519124 290.15876644 -50.32841647 277.20323212 -50.27512169 262.40771961 C-50.2796528 261.4699851 -50.28418391 260.53225059 -50.28885233 259.56609988 C-50.30144173 256.4458522 -50.2998795 253.32578029 -50.2982235 250.20551014 C-50.30421215 247.95929205 -50.31101847 245.71307602 -50.31857872 243.46686268 C-50.33621155 237.37992897 -50.34093296 231.29305153 -50.34221029 225.20609474 C-50.34363399 221.39894562 -50.34790774 217.5918107 -50.35320473 213.78466511 C-50.37074273 201.17604985 -50.38004609 188.56747552 -50.37854378 175.95885137 C-50.37846387 175.28034642 -50.37838395 174.60184147 -50.37830162 173.90277576 C-50.37821986 173.22343392 -50.3781381 172.54409207 -50.37805386 171.8441641 C-50.3772414 160.84096519 -50.39637302 149.83790331 -50.42457835 138.83474401 C-50.45336984 127.51278793 -50.46674971 116.19091932 -50.4653908 104.86891818 C-50.464882 98.52211189 -50.47052032 92.17546076 -50.4917469 85.82868671 C-50.51117638 79.85646481 -50.51122135 73.88454536 -50.49671364 67.91231251 C-50.4946303 65.72790807 -50.49929786 63.54348446 -50.51143456 61.35911274 C-50.60563538 43.22145156 -48.78639169 28.17120048 -35.75769615 14.38422108 C-25.70088391 4.83362422 -13.81562254 0.01990306 0 0 Z M-22.00769615 33.13422108 C-27.44806886 40.00627082 -28.3063322 46.90538089 -28.27512169 55.36792469 C-28.2796528 56.27677662 -28.28418391 57.18562854 -28.28885233 58.12202144 C-28.30147584 61.15641364 -28.29987728 64.19062589 -28.2982235 67.22504139 C-28.30421005 69.40524494 -28.31101589 71.58544637 -28.31857872 73.76564503 C-28.33623366 79.68108105 -28.34093391 85.5964592 -28.34221029 91.51191902 C-28.34363281 95.21016064 -28.34790434 98.90838759 -28.35320473 102.60662556 C-28.37265925 116.18246775 -28.37973549 129.7582644 -28.37805386 143.33411953 C-28.37719097 154.68875944 -28.39995004 166.04322729 -28.42978895 177.39782548 C-28.45596663 187.72842255 -28.46666827 198.05896101 -28.4653908 208.38959098 C-28.46488158 214.55527707 -28.47054281 220.72080352 -28.4917469 226.88645649 C-28.51115407 232.68792722 -28.51123654 238.48908644 -28.49671364 244.29056835 C-28.49462749 246.41453413 -28.49931475 248.53851952 -28.51143456 250.66245174 C-28.67016393 270.13971992 -28.67016393 270.13971992 -18.87488365 286.47797108 C-13.17381682 291.53498434 -7.66388587 293.27022204 -0.14832115 293.23187733 C0.96671791 293.22865467 2.08175697 293.22543201 3.2305851 293.2221117 C4.38945229 293.2137328 5.54831947 293.20535389 6.74230385 293.19672108 C8.50380775 293.1899535 8.50380775 293.1899535 10.3008976 293.1830492 C13.19808457 293.17127202 16.09516839 293.15482434 18.99230385 293.13422108 C16.58373582 291.28835344 14.2158866 289.65974387 11.61730385 288.07172108 C6.23752903 284.17283051 2.86712213 278.73245768 1.30089283 272.2903614 C0.01210118 263.78392416 -0.28725527 255.45136126 -0.25061607 246.85956287 C-0.25169244 245.37217087 -0.25363634 243.88477929 -0.25636864 242.39738941 C-0.26118182 238.38208844 -0.25359076 234.36690019 -0.24341559 230.35161281 C-0.23450401 226.07771935 -0.23639551 221.80382812 -0.23677635 217.52992725 C-0.23584089 210.31003467 -0.22719852 203.09018415 -0.2135067 195.87030506 C-0.19972941 188.58155956 -0.1924901 181.29285282 -0.19299889 174.00409412 C-0.19407188 152.40171854 -0.15399626 130.80007537 -0.04199278 109.19797003 C-0.01845996 104.59876607 -0.00011637 99.99958645 0.01324314 95.40034205 C0.03479308 88.00230508 0.08102598 80.60520311 0.15872192 73.20750332 C0.18025683 70.83329558 0.19369356 68.45899781 0.198246 66.08469677 C0.20622 62.87367163 0.24487178 59.66445881 0.2918644 56.45380116 C0.28734198 55.54331579 0.28281956 54.63283043 0.2781601 53.6947546 C0.47181774 44.97834257 4.20870159 37.21194945 10.0352726 30.73968983 C14.16610132 27.35092615 19.13413742 25.28030431 23.99230385 23.13422108 C23.99230385 22.80422108 23.99230385 22.47422108 23.99230385 22.13422108 C19.72170823 22.01656135 15.45153788 21.94648477 11.17980385 21.88422108 C9.98419838 21.85070545 8.78859291 21.81718983 7.55675697 21.78265858 C-4.42287122 21.65209042 -13.73176524 24.17352047 -22.00769615 33.13422108 Z M143.99230385 22.13422108 C143.99230385 65.69422108 143.99230385 109.25422108 143.99230385 154.13422108 C156.20230385 154.13422108 168.41230385 154.13422108 180.99230385 154.13422108 C179.67230385 153.14422108 178.35230385 152.15422108 176.99230385 151.13422108 C175.28236951 149.51197568 173.61882701 147.84008683 171.99230385 146.13422108 C171.10542885 145.20609608 170.21855385 144.27797108 169.30480385 143.32172108 C165.18406993 137.64179053 164.69418832 130.96378871 164.1758976 124.11078358 C164.11451103 123.36573566 164.05312447 122.62068775 163.9898777 121.85306263 C163.86166896 120.28183194 163.73662651 118.71033994 163.6146183 117.13861561 C163.43291711 114.79930272 163.24187693 112.46091286 163.04894447 110.12250233 C162.4070631 102.2215876 161.85575405 94.3182254 161.4102726 86.40375233 C161.36913841 85.67544209 161.32800423 84.94713184 161.28562355 84.19675159 C160.90812874 77.16735849 160.84617032 70.16991217 160.99230385 63.13422108 C161.01018959 62.09926502 161.02807533 61.06430897 161.04650307 59.99799061 C161.11522794 56.41777608 161.20739155 52.83876318 161.30480385 49.25922108 C161.32720131 48.10559071 161.34959877 46.95196033 161.37267494 45.76337147 C161.59035665 38.96254193 162.48376899 33.46944851 164.99230385 27.13422108 C168.57739871 26.398817 171.85362349 26.12377105 175.49230385 26.25922108 C179.67204025 26.3299442 182.38885571 25.35172762 185.99230385 23.13422108 C185.99230385 22.80422108 185.99230385 22.47422108 185.99230385 22.13422108 C172.13230385 22.13422108 158.27230385 22.13422108 143.99230385 22.13422108 Z " fill="#031629" transform="translate(52.0076961517334,83.86577892303467)"/>
<path d="M0 0 C0.86690397 -0.00226556 1.73380795 -0.00453111 2.62698174 -0.00686532 C5.51321646 -0.01316305 8.39940372 -0.0123787 11.28564453 -0.0115509 C13.36248841 -0.01454496 15.43933172 -0.01794805 17.51617432 -0.02172852 C23.1441604 -0.03054574 28.77213127 -0.03290562 34.4001236 -0.0335443 C37.91793475 -0.03425588 41.43574205 -0.03639219 44.95355225 -0.03904152 C57.23026779 -0.04828604 69.50697249 -0.05237735 81.78369141 -0.05158997 C93.22171653 -0.05098879 104.65969455 -0.06155079 116.09770775 -0.07733363 C125.92551584 -0.09041073 135.75330853 -0.09577382 145.58112526 -0.09513456 C151.44763471 -0.0948797 157.31410225 -0.09772424 163.18060303 -0.10831261 C168.69637391 -0.11799689 174.21206282 -0.11807046 179.72783661 -0.11079597 C181.74985626 -0.10975068 183.77188103 -0.11210972 185.79389191 -0.11815643 C188.55832875 -0.12588687 191.3224832 -0.12122461 194.08691406 -0.11352539 C194.88303541 -0.11866895 195.67915676 -0.12381252 196.499403 -0.12911195 C203.56226491 -0.08577404 209.87955913 1.09889839 216.04345703 4.75871277 C216.80658203 5.20472839 217.56970703 5.65074402 218.35595703 6.11027527 C219.19126953 6.61687683 219.19126953 6.61687683 220.04345703 7.13371277 C220.04345703 7.79371277 220.04345703 8.45371277 220.04345703 9.13371277 C220.64158203 9.39797058 221.23970703 9.66222839 221.85595703 9.93449402 C228.70407743 13.68873145 233.05626708 21.96229247 235.62524414 29.09416199 C238.0991606 37.61840607 237.5372764 46.65748508 237.54736328 55.45402527 C237.55702322 57.44164742 237.56711705 59.42926751 237.57762146 61.41688538 C237.59552441 65.57417231 237.60114873 69.73127285 237.59936523 73.88859558 C237.59906122 79.17388258 237.63995778 84.45795279 237.69168186 89.74295235 C237.72530937 93.84752207 237.73111471 97.95180621 237.72953606 102.05649948 C237.73303861 104.00266067 237.74609305 105.94883232 237.76953316 107.8948555 C237.95592877 124.97118034 235.04830969 138.54096097 224.04345703 152.13371277 C223.43373047 152.97933777 222.82400391 153.82496277 222.19580078 154.69621277 C217.64367817 159.85142967 210.78616867 162.65482661 204.10595703 163.82121277 C199.9408331 162.88618495 198.65868414 161.5059793 196.04345703 158.13371277 C193.69118583 154.37599651 191.67583678 150.48147211 189.79345703 146.46965027 C187.10232215 140.76780824 184.8641645 137.0440665 179.04345703 134.13371277 C176.47939194 134.03466401 173.94229336 133.99646751 171.37789917 134.00241089 C170.17711296 133.99923732 170.17711296 133.99923732 168.95206845 133.99599963 C166.25449043 133.98998129 163.55695894 133.9910011 160.859375 133.99186707 C158.93119731 133.98883671 157.00302033 133.98531561 155.07484436 133.9813385 C150.91420283 133.97343843 146.75356992 133.96830037 142.59292221 133.96504784 C136.01237098 133.9591457 129.43187406 133.94261207 122.85134888 133.92370605 C120.59966091 133.91736826 118.3479729 133.91104265 116.09628487 133.90472889 C114.96843582 133.90156308 113.84058678 133.89839727 112.6785605 133.89513552 C97.35391333 133.85304289 82.02929094 133.82009146 66.70458984 133.80778503 C56.37443177 133.7994041 46.04440759 133.77690994 35.71431649 133.73842937 C30.24674485 133.71866577 24.7793734 133.70626509 19.31176376 133.71126366 C14.16529604 133.71591104 9.0192074 133.70209943 3.87281609 133.67425156 C1.98627021 133.6673407 0.09968513 133.66721208 -1.78685951 133.67445183 C-4.36804977 133.68335495 -6.9479939 133.66762333 -9.52908325 133.64596558 C-10.64185802 133.65862938 -10.64185802 133.65862938 -11.77711308 133.67154902 C-18.54876496 133.56691139 -23.70685999 131.24566005 -28.63623047 126.61808777 C-29.36068359 125.71574402 -30.08513672 124.81340027 -30.83154297 123.88371277 C-31.94142578 122.54566589 -31.94142578 122.54566589 -33.07373047 121.18058777 C-36.65671544 115.38239632 -37.26706343 108.79925844 -37.77294922 102.11027527 C-37.83433578 101.36522736 -37.89572235 100.62017944 -37.95896912 99.85255432 C-38.08717785 98.28132363 -38.2122203 96.70983163 -38.33422852 95.1381073 C-38.51592971 92.79879442 -38.70696989 90.46040455 -38.89990234 88.12199402 C-39.54178372 80.22107929 -40.09309277 72.31771709 -40.53857422 64.40324402 C-40.5797084 63.67493378 -40.62084259 62.94662354 -40.66322327 62.19624329 C-41.04071807 55.16685018 -41.1026765 48.16940386 -40.95654297 41.13371277 C-40.93865723 40.09875671 -40.92077148 39.06380066 -40.90234375 37.9974823 C-40.83361888 34.41726777 -40.74145527 30.83825487 -40.64404297 27.25871277 C-40.62164551 26.1050824 -40.59924805 24.95145203 -40.57617188 23.76286316 C-40.3703105 17.33132538 -40.09355844 10.90767579 -36.95654297 5.13371277 C-32.6879982 2.28801626 -29.09458839 3.07635503 -24.08544922 3.25871277 C-20.87230225 3.13034735 -19.73445342 2.5460336 -16.95654297 1.13371277 C-11.27044437 0.24508978 -5.74691371 -0.0111788 0 0 Z " fill="#FDC077" transform="translate(252.95654296875,105.86628723144531)"/>
<path d="M0 0 C2.18002142 0.01120873 4.36005808 0.01974098 6.5401001 0.02572632 C12.24172655 0.04849245 17.94241686 0.10730975 23.64367676 0.1739502 C29.47586407 0.23563738 35.30820457 0.26279757 41.140625 0.29296875 C52.55770003 0.35706534 63.97408427 0.45929551 75.390625 0.5859375 C75.39116977 1.86201024 75.39171453 3.13808298 75.39227581 4.45282459 C75.40635214 34.81644459 75.44624621 65.17991052 75.51748062 95.54344608 C75.52624626 99.28929892 75.53479627 103.03515222 75.54321289 106.78100586 C75.54489195 107.52666627 75.54657102 108.27232668 75.54830096 109.04058286 C75.5748939 121.07812625 75.58406049 133.11562202 75.58666643 145.15319178 C75.58973735 157.5258554 75.61181493 169.89838243 75.65114957 182.27098435 C75.6747893 189.89156368 75.68400462 197.51186948 75.67413811 205.13248029 C75.66814065 210.99847636 75.68872263 216.86420121 75.71868515 222.73012924 C75.72686266 225.12000724 75.72673509 227.50993201 75.71722221 229.89980507 C75.67053664 242.92855105 76.45587992 254.6234441 80.32005787 267.12024212 C81.390625 270.5859375 81.390625 270.5859375 81.390625 272.5859375 C67.77732269 272.72531745 54.16419178 272.83175168 40.55031967 272.89681053 C34.22795044 272.92804491 27.9060715 272.97037457 21.58398438 273.03857422 C15.47608918 273.10404654 9.36866384 273.13970284 3.26044464 273.15520096 C0.93693909 273.16623723 -1.38654245 273.18778823 -3.7098465 273.22031784 C-27.87508779 273.54503014 -27.87508779 273.54503014 -36.609375 266.5859375 C-49.34489437 253.58178563 -47.76520915 237.62063927 -47.73876953 220.54321289 C-47.74012989 219.10478674 -47.74191334 217.66636095 -47.74407959 216.22793579 C-47.74859544 212.35534393 -47.74688415 208.48277908 -47.7437005 204.61018682 C-47.7411264 200.48177737 -47.74353005 196.35336988 -47.74508667 192.22496033 C-47.74690222 185.25242716 -47.74452695 178.2799046 -47.73974609 171.30737305 C-47.73497762 164.27481383 -47.73487521 157.24227593 -47.73974609 150.2097168 C-47.75358557 129.30377174 -47.73174635 108.39838601 -47.63856483 87.4926213 C-47.61855914 82.97673887 -47.60295263 78.46087357 -47.59112489 73.94496268 C-47.5713103 66.57416365 -47.52504731 59.20417736 -47.44723129 51.83370781 C-47.42544454 49.45154336 -47.41177529 47.06928815 -47.40698624 44.68702888 C-47.39862694 41.45655935 -47.35948552 38.2279011 -47.31201172 34.99780273 C-47.31633587 34.0789649 -47.32066002 33.16012707 -47.3251152 32.21344566 C-47.11998392 22.98728259 -43.04456147 15.03373947 -36.68878174 8.39517212 C-25.69852832 -1.16714515 -13.76345725 -0.20891711 0 0 Z " fill="#88BDF2" transform="translate(98.609375,105.4140625)"/>
<path d="M0 0 C27.72 0 55.44 0 84 0 C86.31 4.62 88.62 9.24 91 14 C97.0166488 21.62673792 102.22200032 27.04080521 112 29 C124.95130013 29.97462751 134.38098999 26.41417366 145 19 C146.02243344 17.68379043 147.02929904 16.35481269 148 15 C148.66 15 149.32 15 150 15 C150.09301653 27.29226079 150.16392505 39.58443672 150.20724869 51.87697887 C150.22805048 57.5860005 150.25623195 63.29477986 150.30175781 69.00366211 C150.34548076 74.52150642 150.36919271 80.0391189 150.37950897 85.55712318 C150.3868531 87.65368609 150.40119342 89.75023748 150.42292023 91.84670067 C150.62176491 111.84381189 147.67959985 126.01223643 133.5 141 C128.54343166 145.68404224 124.27443627 148.94450108 117.3125 149.0625 C111.20755647 147.10431057 108.16546673 142.3417251 105 137 C100 126.85632184 100 126.85632184 100 124 C99.4225 123.731875 98.845 123.46375 98.25 123.1875 C96 122 96 122 94.41558838 120.45280457 C90.80724372 118.28264195 87.19260408 118.5607419 83.10058594 118.56762695 C82.18818272 118.55735316 81.2757795 118.54707937 80.33572769 118.53649426 C77.38520923 118.50662837 74.43502368 118.49706782 71.484375 118.48828125 C69.66160923 118.47281603 67.83885426 118.45601933 66.01611328 118.43786621 C59.26086134 118.3799341 52.50540821 118.34778195 45.75 118.3125 C30.6525 118.209375 15.555 118.10625 0 118 C0 79.06 0 40.12 0 0 Z " fill="#B99EE3" transform="translate(340,260)"/>
<path d="M0 0 C33.66 0 67.32 0 102 0 C102 38.94 102 77.88 102 118 C82.2 118.12375 82.2 118.12375 62 118.25 C57.8440625 118.28641602 53.688125 118.32283203 49.40625 118.36035156 C44.30078125 118.37841797 44.30078125 118.37841797 41.90478516 118.3817749 C40.24425968 118.38788597 38.58375109 118.40188929 36.92333984 118.42230225 C34.39650003 118.45179312 31.87073736 118.45561722 29.34375 118.45410156 C28.61369751 118.468494 27.88364502 118.48288643 27.13146973 118.497715 C20.07184275 118.44143333 13.76104973 115.4069477 8.44921875 110.75 C1.82624451 102.7524462 -0.05138725 93.71109734 -0.5546875 83.6640625 C-0.59673309 82.83742096 -0.63877869 82.01077942 -0.68209839 81.15908813 C-1.12464842 71.58568157 -1.15027286 62.01406408 -1.13037109 52.43212891 C-1.12504166 49.39871134 -1.13033882 46.3654442 -1.13671875 43.33203125 C-1.12737498 28.83985118 -0.58021379 14.50534473 0 0 Z " fill="#B6E190" transform="translate(217,260)"/>
<path d="M0 0 C1.79244141 0.01740234 1.79244141 0.01740234 3.62109375 0.03515625 C5.41740234 0.04869141 5.41740234 0.04869141 7.25 0.0625 C8.17683594 0.07410156 9.10367187 0.08570313 10.05859375 0.09765625 C9.89724442 0.91059647 9.73589508 1.72353668 9.56965637 2.56111145 C8.9836179 6.61648787 8.89561004 10.59503126 8.8815918 14.68237305 C8.871735 15.94465477 8.871735 15.94465477 8.86167908 17.23243713 C8.84204803 20.0039175 8.83030595 22.77534393 8.8203125 25.546875 C8.81623697 26.4985084 8.81216145 27.45014179 8.80796242 28.43061256 C8.78714454 33.46830652 8.77282466 38.50597359 8.76342773 43.54370117 C8.75237558 48.72391456 8.71797697 53.903697 8.67825603 59.08375835 C8.65200699 63.08772027 8.64372854 67.09158074 8.64014626 71.09562111 C8.63530131 73.00403566 8.62374766 74.91244632 8.60510826 76.82077599 C8.51082287 87.11393007 8.73010577 95.5629717 13.05859375 105.09765625 C13.05859375 105.75765625 13.05859375 106.41765625 13.05859375 107.09765625 C14.54359375 107.59265625 14.54359375 107.59265625 16.05859375 108.09765625 C16.05859375 108.75765625 16.05859375 109.41765625 16.05859375 110.09765625 C16.67734375 110.38640625 17.29609375 110.67515625 17.93359375 110.97265625 C20.05859375 112.09765625 20.05859375 112.09765625 22.05859375 114.09765625 C12.48859375 114.09765625 2.91859375 114.09765625 -6.94140625 114.09765625 C-6.98659733 101.29328637 -7.02328807 88.48896949 -7.04503059 75.68453789 C-7.05546609 69.73888052 -7.06962116 63.79328057 -7.09228516 57.84765625 C-7.11402167 52.10941122 -7.12597664 46.37122141 -7.13116074 40.63293839 C-7.13485502 38.4440944 -7.14206899 36.25525342 -7.15286636 34.06643295 C-7.16739186 30.9997887 -7.16938373 27.93337236 -7.16845703 24.86669922 C-7.17564758 23.96254776 -7.18283813 23.0583963 -7.19024658 22.12684631 C-7.17466129 17.35800341 -6.73217883 13.59145113 -4.94140625 9.09765625 C-4.70583803 7.66724718 -4.51065931 6.22883337 -4.37890625 4.78515625 C-3.82624761 0.12703345 -3.82624761 0.12703345 0 0 Z " fill="#FAFBFA" transform="translate(347.94140625,262.90234375)"/>
<path d="M0 0 C0 81.18 0 162.36 0 246 C-0.33 246 -0.66 246 -1 246 C-1.33 166.47 -1.66 86.94 -2 5 C-6.22515948 2.88742026 -8.38017308 2.73850036 -13 3 C-13.33 3.33 -13.66 3.66 -14 4 C-16.67787973 4.09512944 -19.32988869 4.12555279 -22.00805664 4.11352539 C-22.84700974 4.11367142 -23.68596283 4.11381744 -24.55033875 4.1139679 C-27.33697044 4.1132685 -30.12353616 4.10547485 -32.91015625 4.09765625 C-34.83686791 4.09579217 -36.76358005 4.09436822 -38.69029236 4.09336853 C-43.77187397 4.08954259 -48.8534272 4.07971166 -53.93499756 4.06866455 C-59.11616634 4.05845206 -64.29733969 4.05387126 -69.47851562 4.04882812 C-79.65235625 4.03808946 -89.82617577 4.02101213 -100 4 C-100 4.66 -100 5.32 -100 6 C-100.9075 6.28875 -101.815 6.5775 -102.75 6.875 C-105.32202908 7.76531776 -107.61346766 8.71494413 -110 10 C-110 10.66 -110 11.32 -110 12 C-110.66 12 -111.32 12 -112 12 C-112 12.66 -112 13.32 -112 14 C-112.66 14 -113.32 14 -114 14 C-114 14.66 -114 15.32 -114 16 C-114.66 16 -115.32 16 -116 16 C-117.27643203 21.31846679 -117.36269747 26.67340623 -117.60546875 32.11328125 C-117.89717834 37.89717834 -117.89717834 37.89717834 -119 39 C-119.10005985 41.67983536 -119.13440006 44.33396735 -119.12698364 47.014328 C-119.12854363 47.86441148 -119.13010362 48.71449495 -119.13171089 49.59033853 C-119.13572477 52.46152872 -119.13252969 55.33266677 -119.12939453 58.20385742 C-119.13074845 60.25335725 -119.13252833 62.30285684 -119.13470459 64.35235596 C-119.13928147 69.93723827 -119.13748795 75.5221022 -119.1343255 81.10698485 C-119.1318015 86.94317536 -119.13413971 92.77936424 -119.13571167 98.61555481 C-119.13753397 108.42380049 -119.13512623 118.23203866 -119.13037109 128.0402832 C-119.12493593 139.38219023 -119.12668546 150.72407927 -119.1321975 162.06598586 C-119.13673595 171.79340938 -119.13737535 181.52082749 -119.13475883 191.24825174 C-119.13319912 197.06224984 -119.13299379 202.87623949 -119.13629532 208.69023705 C-119.13918437 214.16074845 -119.13717924 219.6312367 -119.13140106 225.10174561 C-119.1300787 227.11008478 -119.13045871 229.1184259 -119.13266373 231.1267643 C-119.13539595 233.86812045 -119.13196857 236.60940236 -119.12698364 239.35075378 C-119.12921436 240.14580281 -119.13144509 240.94085184 -119.13374341 241.75999326 C-119.11896264 245.9506956 -118.82608267 249.87109002 -118 254 C-118.66 254.33 -119.32 254.66 -120 255 C-121.86350618 250.98691618 -122.3653949 247.53184801 -122.61691284 243.12767029 C-122.6545285 242.47114517 -122.69214416 241.81462005 -122.73089969 241.13820022 C-123.10390463 234.08022465 -123.14033524 227.02391172 -123.12939453 219.95727539 C-123.13075489 218.51884924 -123.13253834 217.08042345 -123.13470459 215.64199829 C-123.13922044 211.76940643 -123.13750915 207.89684158 -123.1343255 204.02424932 C-123.1317514 199.89583987 -123.13415505 195.76743238 -123.13571167 191.63902283 C-123.13752722 184.66648966 -123.13515195 177.6939671 -123.13037109 170.72143555 C-123.12560262 163.68887633 -123.12550021 156.65633843 -123.13037109 149.6237793 C-123.14421057 128.71783424 -123.12237135 107.81244851 -123.02918983 86.9066838 C-123.00918414 82.39080137 -122.99357763 77.87493607 -122.98174989 73.35902518 C-122.9619353 65.98822615 -122.91567231 58.61823986 -122.83785629 51.24777031 C-122.81606954 48.86560586 -122.80240029 46.48335065 -122.79761124 44.10109138 C-122.78925194 40.87062185 -122.75011052 37.6419636 -122.70263672 34.41186523 C-122.70696087 33.4930274 -122.71128502 32.57418957 -122.7157402 31.62750816 C-122.52655056 23.11835041 -119.11784542 16.40573061 -113.9375 9.75 C-85.80880431 -17.03923399 -24.40713868 0 0 0 Z " fill="#8DB9E1" transform="translate(174,106)"/>
<path d="M0 0 C-0.804375 0.45375 -1.60875 0.9075 -2.4375 1.375 C-5.08856572 2.74725665 -5.08856572 2.74725665 -6 5 C-6.66 5 -7.32 5 -8 5 C-8 6.32 -8 7.64 -8 9 C-8.66 9 -9.32 9 -10 9 C-10 9.66 -10 10.32 -10 11 C-10.66 11 -11.32 11 -12 11 C-12 11.66 -12 12.32 -12 13 C-12.804375 13.2475 -13.60875 13.495 -14.4375 13.75 C-17.171081 14.72238859 -17.171081 14.72238859 -17.8125 17.125 C-17.874375 17.74375 -17.93625 18.3625 -18 19 C-18.66 19 -19.32 19 -20 19 C-19.89251578 30.92628492 -19.77988576 42.85250903 -19.66066074 54.77868271 C-19.60546385 60.31630212 -19.55204894 65.85392684 -19.50268555 71.39160156 C-19.45499441 76.7343634 -19.40264975 82.07706112 -19.34705925 87.4197464 C-19.32665725 89.45949968 -19.30794061 91.49927052 -19.29092598 93.53905487 C-19.26683437 96.39296322 -19.23678615 99.24675068 -19.20532227 102.10058594 C-19.1995668 102.94647278 -19.19381134 103.79235962 -19.18788147 104.66387939 C-19.14260469 108.26981192 -18.97125112 111.52877591 -18 115 C-17.34 115 -16.68 115 -16 115 C-16 116.32 -16 117.64 -16 119 C-14.35 119.33 -12.7 119.66 -11 120 C-10.67 120.99 -10.34 121.98 -10 123 C-9.34 123 -8.68 123 -8 123 C-8 123.66 -8 124.32 -8 125 C-6.68 125 -5.36 125 -4 125 C-4 125.66 -4 126.32 -4 127 C21.08 127 46.16 127 72 127 C72 127.33 72 127.66 72 128 C111.6 128.33 151.2 128.66 192 129 C192 129.33 192 129.66 192 130 C166.45259231 130.09345834 140.90521025 130.16398665 115.35766602 130.20724869 C103.49538456 130.22787028 91.63320935 130.25598334 79.77099609 130.30175781 C69.43139671 130.34163772 59.09187428 130.36743574 48.75220013 130.37635398 C43.27784893 130.38156673 37.80371787 130.3938105 32.32943726 130.42292023 C27.17485826 130.45010738 22.0205897 130.45843824 16.86594582 130.45243073 C14.97614669 130.45352948 13.08633699 130.4614636 11.19659996 130.4768219 C8.61099433 130.49680164 6.02655201 130.49191043 3.44091797 130.48101807 C2.69770389 130.49266943 1.9544898 130.5043208 1.18875408 130.51632524 C-5.59387592 130.4393935 -10.74378548 128.11807894 -15.6796875 123.484375 C-16.40414062 122.58203125 -17.12859375 121.6796875 -17.875 120.75 C-18.98488281 119.41195312 -18.98488281 119.41195312 -20.1171875 118.046875 C-23.70017247 112.24868355 -24.31052046 105.66554567 -24.81640625 98.9765625 C-24.87779282 98.23151459 -24.93917938 97.48646667 -25.00242615 96.71884155 C-25.13063488 95.14761086 -25.25567734 93.57611886 -25.37768555 92.00439453 C-25.55938674 89.66508165 -25.75042692 87.32669178 -25.94335938 84.98828125 C-26.58524075 77.08736652 -27.1365498 69.18400432 -27.58203125 61.26953125 C-27.62316544 60.54122101 -27.66429962 59.81291077 -27.7066803 59.06253052 C-28.08417511 52.03313742 -28.14613353 45.03569109 -28 38 C-27.98211426 36.96504395 -27.96422852 35.93008789 -27.94580078 34.86376953 C-27.87707591 31.28355501 -27.7849123 27.7045421 -27.6875 24.125 C-27.66510254 22.97136963 -27.64270508 21.81773926 -27.61962891 20.62915039 C-27.41376753 14.19761261 -27.13701547 7.77396302 -24 2 C-20.40990977 -0.39339348 -18.86745502 -0.18385169 -14.625 -0.0625 C-11.36848794 0.0235917 -8.46783594 0.09584605 -5.2734375 -0.55859375 C-3 -1 -3 -1 0 0 Z " fill="#E3CDAA" transform="translate(240,109)"/>
<path d="M0 0 C33 0 66 0 100 0 C100 38.28 100 76.56 100 116 C98.02 115.505 98.02 115.505 96 115 C96.66 115 97.32 115 98 115 C98 77.38 98 39.76 98 1 C66.32 1 34.64 1 2 1 C2 32.02 2 63.04 2 95 C-1.3130639 90.58258147 -1.53202006 87.98433103 -1.6796875 82.73828125 C-1.71270966 81.90774734 -1.74573181 81.07721344 -1.77975464 80.22151184 C-2.12361175 70.57408787 -2.15029993 60.91979087 -2.13037109 51.26733398 C-2.12502347 48.20095843 -2.13034834 45.13473047 -2.13671875 42.06835938 C-2.14057883 31.90710684 -1.99061398 21.76587849 -1.5546875 11.61328125 C-1.51594513 10.67413376 -1.47720276 9.73498627 -1.43728638 8.76737976 C-1.39594574 7.90610977 -1.3546051 7.04483978 -1.31201172 6.1574707 C-1.2761496 5.40021194 -1.24028748 4.64295319 -1.20333862 3.86274719 C-1 2 -1 2 0 0 Z " fill="#B9E0A8" transform="translate(218,261)"/>
<path d="M0 0 C0.8725485 -0.00085442 1.745097 -0.00170885 2.64408636 -0.00258917 C5.54900044 -0.00422782 8.45385595 0.00125083 11.35876465 0.00672913 C13.44858804 0.00701137 15.53841153 0.00685253 17.62823486 0.00628662 C23.28874635 0.00600011 28.94923657 0.01187327 34.60974312 0.01886058 C40.53011085 0.0251184 46.45047908 0.02569984 52.37084961 0.02688599 C63.57619993 0.02999214 74.78154048 0.03819588 85.9868865 0.04823548 C98.74619918 0.05941884 111.50551232 0.06491267 124.26482868 0.06993091 C150.50643254 0.08037908 176.74802774 0.09796467 202.98962402 0.12025452 C202.98962402 0.45025452 202.98962402 0.78025452 202.98962402 1.12025452 C198.51792387 2.23205005 194.13479294 2.27002447 189.55674744 2.27174377 C188.71000224 2.27597619 187.86325704 2.2802086 186.99085289 2.28456926 C184.15507362 2.29757996 181.31932245 2.30361643 178.48352051 2.30970764 C176.4498884 2.31765117 174.41625798 2.32603922 172.38262939 2.33483887 C168.00431752 2.35288898 163.62600936 2.36790697 159.24767876 2.38061523 C152.32773822 2.40083657 145.4078397 2.42848819 138.4879303 2.45729065 C122.55107853 2.52248603 106.61419559 2.57792796 90.67730713 2.63327789 C76.06900311 2.6841094 61.46071434 2.73698347 46.85244805 2.7978034 C39.97007131 2.82617443 33.08769956 2.84976232 26.20529354 2.86972809 C21.92874359 2.88310118 17.65221708 2.90051413 13.37568665 2.91903877 C11.38908543 2.92680377 9.40247676 2.93286943 7.41586494 2.93713188 C4.70904223 2.94316751 2.00231092 2.95521052 -0.70448303 2.96876526 C-1.49484737 2.96906125 -2.2852117 2.96935723 -3.09952646 2.96966219 C-6.57349602 2.99290871 -9.66764723 3.19100053 -13.01037598 4.12025452 C-13.01037598 4.78025452 -13.01037598 5.44025452 -13.01037598 6.12025452 C-14.66037598 6.12025452 -16.31037598 6.12025452 -18.01037598 6.12025452 C-17.35037598 5.13025452 -16.69037598 4.14025452 -16.01037598 3.12025452 C-16.67037598 2.79025452 -17.33037598 2.46025452 -18.01037598 2.12025452 C-14.61954856 -1.2705729 -4.61400815 -0.01676676 0 0 Z " fill="#E6C085" transform="translate(253.0103759765625,105.87974548339844)"/>
<path d="M0 0 C36.96 0.33 73.92 0.66 112 1 C111.01 1.33 110.02 1.66 109 2 C108.67 2.99 108.34 3.98 108 5 C75 5 42 5 8 5 C8.33 4.34 8.66 3.68 9 3 C4.545 2.01 4.545 2.01 0 1 C0 0.67 0 0.34 0 0 Z " fill="#06203B" transform="translate(68,377)"/>
<path d="M0 0 C0.66 0.33 1.32 0.66 2 1 C2 1.99 2 2.98 2 4 C2.66 4 3.32 4 4 4 C4 5.32 4 6.64 4 8 C5.65 8.33 7.3 8.66 9 9 C9.33 9.99 9.66 10.98 10 12 C10.66 12 11.32 12 12 12 C12 12.66 12 13.32 12 14 C13.32 14 14.64 14 16 14 C16 14.66 16 15.32 16 16 C41.08 16 66.16 16 92 16 C92 16.33 92 16.66 92 17 C131.6 17.33 171.2 17.66 212 18 C212 18.33 212 18.66 212 19 C186.45259231 19.09345834 160.90521025 19.16398665 135.35766602 19.20724869 C123.49538456 19.22787028 111.63320935 19.25598334 99.77099609 19.30175781 C89.43139671 19.34163772 79.09187428 19.36743574 68.75220013 19.37635398 C63.27784893 19.38156673 57.80371787 19.3938105 52.32943726 19.42292023 C47.17485826 19.45010738 42.0205897 19.45843824 36.86594582 19.45243073 C34.97614669 19.45352948 33.08633699 19.4614636 31.19659996 19.4768219 C28.61099433 19.49680164 26.02655201 19.49191043 23.44091797 19.48101807 C22.69770389 19.49266943 21.9544898 19.5043208 21.18875408 19.51632524 C14.30647577 19.43826324 9.15345148 17.08096504 4.21484375 12.30859375 C3.46332031 11.36113281 2.71179688 10.41367188 1.9375 9.4375 C1.16277344 8.48746094 0.38804687 7.53742188 -0.41015625 6.55859375 C-1.19712891 5.29208984 -1.19712891 5.29208984 -2 4 C-1 1 -1 1 0 0 Z " fill="#C1A483" transform="translate(220,220)"/>
<path d="M0 0 C27.72 0 55.44 0 84 0 C84.495 1.98 84.495 1.98 85 4 C83.35 4 81.7 4 80 4 C80 3.34 80 2.68 80 2 C72.82825065 2.11774316 65.65664966 2.24257171 58.48510742 2.37231445 C56.0456827 2.41561209 53.60622868 2.45729083 51.16674805 2.49731445 C47.65925266 2.55514208 44.15190403 2.61880085 40.64453125 2.68359375 C39.00989677 2.70866249 39.00989677 2.70866249 37.34223938 2.73423767 C35.81121834 2.7641555 35.81121834 2.7641555 34.24926758 2.79467773 C33.35436111 2.81022202 32.45945465 2.8257663 31.53742981 2.84178162 C28.94746909 3.0032755 26.5294851 3.43263005 24 4 C23.855625 4.61875 23.71125 5.2375 23.5625 5.875 C23 8 23 8 22 10 C21.34 10 20.68 10 20 10 C20 10.66 20 11.32 20 12 C19.01 12 18.02 12 17 12 C17.66 12.66 18.32 13.32 19 14 C19.15828096 16.50199341 19.19250311 18.88779584 19.13525391 21.38720703 C19.12579239 22.14827759 19.11633087 22.90934814 19.10658264 23.69348145 C19.0728394 26.21516612 19.02474273 28.73636569 18.9765625 31.2578125 C18.9504021 33.00372033 18.92513456 34.74964175 18.90072632 36.49557495 C18.83400932 41.09561326 18.755131 45.69536657 18.67376709 50.29516602 C18.59291126 54.98703046 18.52349121 59.67906234 18.453125 64.37109375 C18.31331133 73.5809299 18.16065677 82.79050552 18 92 C17.34 92 16.68 92 16 92 C15.95362721 81.28178684 15.91810563 70.5635976 15.89637566 59.84530449 C15.88594554 54.86818774 15.87180036 49.89113971 15.84912109 44.9140625 C15.8273653 40.10949148 15.81542556 35.30498651 15.81024551 30.50037003 C15.80655468 28.66878342 15.79934742 26.83720037 15.78853989 25.00564194 C15.77398864 22.43711327 15.77202358 19.86885632 15.77294922 17.30029297 C15.76216339 16.16848351 15.76216339 16.16848351 15.75115967 15.0138092 C15.76932407 10.34525787 16.46035812 7.61892563 18 3 C12.06 2.67 6.12 2.34 0 2 C0 1.34 0 0.68 0 0 Z " fill="#B5A2D4" transform="translate(340,260)"/>
<path d="M0 0 C0.99 0.33 1.98 0.66 3 1 C5.55864572 1.10535302 8.09075089 1.1548282 10.64982605 1.15821838 C11.82973404 1.16562535 11.82973404 1.16562535 13.03347856 1.17318195 C15.67750893 1.18857837 18.32151498 1.19692338 20.96557617 1.20532227 C22.85762243 1.2148991 24.74966653 1.22490907 26.64170837 1.23532104 C31.78598104 1.26239721 36.93026291 1.2833921 42.07456756 1.30332303 C47.44778486 1.32516586 52.82097372 1.35256287 58.19416809 1.37937927 C68.37260163 1.42932921 78.55105095 1.47425951 88.72951537 1.51740164 C100.31584036 1.56675435 111.9021368 1.62167976 123.4884342 1.67708123 C147.32559618 1.79093661 171.16278553 1.8977679 195 2 C195 2.66 195 3.32 195 4 C130.32 4 65.64 4 -1 4 C-0.67 2.68 -0.34 1.36 0 0 Z " fill="#F8C26B" transform="translate(237,232)"/>
<path d="M0 0 C0 81.18 0 162.36 0 246 C-0.33 246 -0.66 246 -1 246 C-1.33 166.47 -1.66 86.94 -2 5 C-3.32 4.34 -4.64 3.68 -6 3 C-6 2.34 -6 1.68 -6 1 C-17.25709777 1.10755273 -28.51413198 1.22019663 -39.7711134 1.33933926 C-44.99818528 1.39450203 -50.22526283 1.44791139 -55.45239258 1.49731445 C-60.49690375 1.54505604 -65.54134805 1.59740234 -70.58577919 1.65294075 C-72.51027066 1.67331994 -74.43478044 1.69204026 -76.35930443 1.70907402 C-79.05495185 1.73321633 -81.75047387 1.76325732 -84.44604492 1.79467773 C-85.63935173 1.80331093 -85.63935173 1.80331093 -86.85676575 1.81211853 C-89.95033014 1.85310127 -92.82097449 1.95989343 -95.84712219 2.63783264 C-98 3 -98 3 -101 1 C-69.05943019 -9.6468566 -33.66831679 0 0 0 Z " fill="#7AA3CC" transform="translate(174,106)"/>
<path d="M0 0 C0.66 0.33 1.32 0.66 2 1 C2 32.02 2 63.04 2 95 C-1.3130639 90.58258147 -1.53202006 87.98433103 -1.6796875 82.73828125 C-1.71270966 81.90774734 -1.74573181 81.07721344 -1.77975464 80.22151184 C-2.12361175 70.57408787 -2.15029993 60.91979087 -2.13037109 51.26733398 C-2.12502347 48.20095843 -2.13034834 45.13473047 -2.13671875 42.06835938 C-2.14057883 31.90710684 -1.99061398 21.76587849 -1.5546875 11.61328125 C-1.51594513 10.67413376 -1.47720276 9.73498627 -1.43728638 8.76737976 C-1.39594574 7.90610977 -1.3546051 7.04483978 -1.31201172 6.1574707 C-1.2761496 5.40021194 -1.24028748 4.64295319 -1.20333862 3.86274719 C-1 2 -1 2 0 0 Z " fill="#C7DEB3" transform="translate(218,261)"/>
<path d="M0 0 C0.33 0 0.66 0 1 0 C1.11636154 11.75341313 1.20495134 23.50668698 1.25906086 35.26056099 C1.28504388 40.71965146 1.32023362 46.17834495 1.37719727 51.63720703 C1.43192227 56.91516847 1.46150525 62.19275048 1.47438622 67.47097397 C1.48355392 69.47462809 1.5014544 71.47826379 1.52865028 73.4817543 C1.74462428 90.06696765 -0.30504405 102.62532354 -11 116 C-11.91652344 117.27230469 -11.91652344 117.27230469 -12.8515625 118.5703125 C-17.40478328 123.71959127 -24.26100248 126.52176234 -30.9375 127.6875 C-35.10262393 126.75247218 -36.38477289 125.37226653 -39 122 C-41.3522712 118.24228374 -43.36762025 114.34775934 -45.25 110.3359375 C-47.56774179 105.42522208 -49.30899724 102.0428126 -54 99 C-54.66 98.34 -55.32 97.68 -56 97 C-54.02 96.505 -54.02 96.505 -52 96 C-52 96.66 -52 97.32 -52 98 C-50.68 98.66 -49.36 99.32 -48 100 C-48 100.66 -48 101.32 -48 102 C-47.34 102 -46.68 102 -46 102 C-45.01 103.98 -44.02 105.96 -43 108 C-42.67 108 -42.34 108 -42 108 C-42 109.98 -42 111.96 -42 114 C-40.68 114 -39.36 114 -38 114 C-38 115.32 -38 116.64 -38 118 C-37.34 118 -36.68 118 -36 118 C-36 119.32 -36 120.64 -36 122 C-31.71 122.66 -27.42 123.32 -23 124 C-22.34 122.02 -21.68 120.04 -21 118 C-19.35 118 -17.7 118 -16 118 C-16 117.34 -16 116.68 -16 116 C-15.34 116 -14.68 116 -14 116 C-14.020625 115.195625 -14.04125 114.39125 -14.0625 113.5625 C-14 111 -14 111 -13 110 C-11.33382885 109.95936168 -9.66611905 109.957279 -8 110 C-8 108.68 -8 107.36 -8 106 C-7.34 106 -6.68 106 -6 106 C-6.04125 105.236875 -6.0825 104.47375 -6.125 103.6875 C-6 101 -6 101 -4 98 C-3.34 98 -2.68 98 -2 98 C-2 95.36 -2 92.72 -2 90 C-1.34 90 -0.68 90 0 90 C0 60.3 0 30.6 0 0 Z " fill="#E7BF87" transform="translate(488,142)"/>
<path d="M0 0 C69.96 0 139.92 0 212 0 C212 0.66 212 1.32 212 2 C212.680625 2.12375 213.36125 2.2475 214.0625 2.375 C218.1386965 3.24227585 222.25861994 4.12930997 226 6 C226.33 6.99 226.66 7.98 227 9 C228.65948148 10.01187895 230.32580562 11.0126546 232 12 C232 12.66 232 13.32 232 14 C232.66 14 233.32 14 234 14 C234.33 14.99 234.66 15.98 235 17 C234.34 17.66 233.68 18.32 233 19 C232.59007812 18.50628906 232.18015625 18.01257813 231.7578125 17.50390625 C231.21898437 16.86324219 230.68015625 16.22257812 230.125 15.5625 C229.59132813 14.92441406 229.05765625 14.28632812 228.5078125 13.62890625 C227.0777243 11.89194996 227.0777243 11.89194996 225 11 C225 10.34 225 9.68 225 9 C224.113125 8.731875 223.22625 8.46375 222.3125 8.1875 C219 7 219 7 216.8125 5.5 C206.94267133 0.23609137 193.97842189 1.69275821 183.11645508 1.68115234 C181.11485393 1.67184183 179.11325662 1.66167151 177.11166382 1.65071106 C171.70547096 1.62352361 166.29930399 1.60829515 160.89306092 1.59528303 C155.23293241 1.57960304 149.57285639 1.55282843 143.9127655 1.5272522 C133.20690474 1.48055039 122.50103402 1.44376474 111.79512376 1.41057932 C99.60159773 1.37229707 87.40812454 1.32290295 75.21464312 1.27259517 C50.14313462 1.16940323 25.07159216 1.08010154 0 1 C0 0.67 0 0.34 0 0 Z " fill="#130A00" transform="translate(248,104)"/>
<path d="M0 0 C11.85699256 -0.13921055 23.71378971 -0.24572823 35.57143402 -0.31087303 C41.07786489 -0.34214443 46.58373537 -0.38454142 52.08984375 -0.45263672 C57.40669742 -0.51797765 62.72301314 -0.55373756 68.04023743 -0.56926346 C70.06562261 -0.5803233 72.09097937 -0.60192111 74.11613464 -0.63438034 C76.96022436 -0.6781397 79.80211051 -0.68392601 82.64648438 -0.68115234 C83.47799011 -0.702724 84.30949585 -0.72429565 85.16619873 -0.746521 C90.81308847 -0.68719671 94.04440081 0.85976263 98.48117828 4.32082176 C100.18610177 6.20575031 100.60998392 7.51673357 101 10 C100.01 10.33 99.02 10.66 98 11 C97.01 10.01 97.01 10.01 96 9 C96 8.01 96 7.02 96 6 C93.1085977 5.03619923 91.17346077 4.84887976 88.16137695 4.79467773 C87.1805867 4.77473251 86.19979645 4.75478729 85.18928528 4.73423767 C84.13295395 4.71752518 83.07662262 4.70081268 81.98828125 4.68359375 C80.90491989 4.66281265 79.82155853 4.64203156 78.70536804 4.62062073 C75.24114384 4.55518203 71.7768432 4.49626647 68.3125 4.4375 C65.96548685 4.39430939 63.61848147 4.35069493 61.27148438 4.30664062 C55.51440396 4.19950643 49.75724733 4.09772936 44 4 C44 3.67 44 3.34 44 3 C38.72 3 33.44 3 28 3 C28 2.67 28 2.34 28 2 C14.14 1.505 14.14 1.505 0 1 C0 0.67 0 0.34 0 0 Z " fill="#131B38" transform="translate(340,378)"/>
<path d="M0 0 C1.98 0 3.96 0 6 0 C6.33 0.99 6.66 1.98 7 3 C9.97 3.33 12.94 3.66 16 4 C16 4.66 16 5.32 16 6 C39.76 6 63.52 6 88 6 C88.495 7.485 88.495 7.485 89 9 C78.93376677 9.09276471 68.86763558 9.16379786 58.80106163 9.20724869 C54.12649795 9.22810516 49.45222716 9.25638724 44.77783203 9.30175781 C40.26501215 9.34528496 35.75247363 9.3691517 31.23945999 9.37950897 C29.51948239 9.38688804 27.79951983 9.40129779 26.07966232 9.42292023 C23.66654179 9.45204629 21.2545772 9.45595228 18.84130859 9.45410156 C17.77962967 9.47567322 17.77962967 9.47567322 16.69650269 9.49768066 C10.14744255 9.44349222 6.7034581 6.62939471 2.125 2.25 C1.42375 1.5075 0.7225 0.765 0 0 Z " fill="#B9DF9F" transform="translate(224,368)"/>
<path d="M0 0 C0.99 0.33 1.98 0.66 3 1 C3 2.65 3 4.3 3 6 C3.66 6 4.32 6 5 6 C5 7.98 5 9.96 5 12 C5.66 12 6.32 12 7 12 C9.70452741 15.96467712 9.28073448 20.32282172 9.25878906 24.92431641 C9.2622937 25.82567322 9.26579834 26.72703003 9.26940918 27.65570068 C9.27821573 30.63773286 9.27237812 33.61952786 9.265625 36.6015625 C9.26697267 38.67939296 9.26891405 40.75722311 9.27142334 42.83505249 C9.27437374 47.19459021 9.27008225 51.55404602 9.26074219 55.91357422 C9.24939028 61.48168332 9.25588058 67.0495987 9.26788712 72.61770058 C9.27514436 76.91243932 9.27279936 81.20713284 9.26763153 85.50187302 C9.26630349 87.55343016 9.26791291 89.60499149 9.27259064 91.65654373 C9.27771473 94.53757698 9.2698618 97.41830561 9.25878906 100.29931641 C9.26283752 101.13604889 9.26688599 101.97278137 9.27105713 102.83486938 C9.22932353 108.74673163 8.33507612 114.24567249 7 120 C6.34 120 5.68 120 5 120 C5 121.98 5 123.96 5 126 C3.68 126 2.36 126 1 126 C1.45451184 124.26982492 1.91378857 122.54090123 2.375 120.8125 C2.63023437 119.84957031 2.88546875 118.88664062 3.1484375 117.89453125 C4 115 4 115 5.0350647 112.86476135 C6.33590645 109.00273955 6.29501282 105.29806663 6.29052734 101.26928711 C6.29724457 100.40025757 6.30396179 99.53122803 6.31088257 98.63586426 C6.32985856 95.76629897 6.33378735 92.89696787 6.3359375 90.02734375 C6.34236847 88.02299403 6.34909706 86.01864525 6.35610962 84.01429749 C6.36808338 79.81037219 6.37179062 75.60652904 6.37060547 71.40258789 C6.37040291 66.04193716 6.39763908 60.68182034 6.43214989 55.32129574 C6.45450653 51.17830538 6.45844024 47.0354414 6.45738602 42.89239693 C6.45973134 40.91783379 6.46849393 38.9432666 6.48405075 36.96876335 C6.55997128 26.33201712 6.50795665 16.87826492 2 7 C1.69411957 6.32601669 1.38823914 5.65203339 1.0730896 4.95762634 C0.4264609 3.61609535 -0.2767614 2.30182948 -1 1 C-0.67 0.67 -0.34 0.34 0 0 Z " fill="#14130E" transform="translate(483,122)"/>
<path d="M0 0 C0.66 0 1.32 0 2 0 C2.99777637 3.11459406 2.94791534 5.02131273 2.07990456 8.15560818 C0.90491026 13.00038432 0.71004971 17.5415411 0.7215271 22.51026917 C0.7128385 23.88162684 0.7128385 23.88162684 0.70397437 25.2806887 C0.68707281 28.32070728 0.68410638 31.36057313 0.68115234 34.40063477 C0.67184737 36.58913033 0.66167786 38.77762236 0.65071106 40.96611023 C0.62346122 46.89100067 0.60827648 52.8158674 0.59528303 58.74080396 C0.57963057 64.93879741 0.55284707 71.1367426 0.5272522 77.33470154 C0.4805019 89.064152 0.44373961 100.79361157 0.41057932 112.52310747 C0.38384633 121.89733979 0.3523258 131.27154673 0.31738281 140.64575195 C0.31492126 141.30650046 0.31245972 141.96724897 0.30992357 142.64802016 C0.29754832 145.96304852 0.28508749 149.27807656 0.27259517 152.59310448 C0.16933105 180.06203368 0.08005268 207.53099405 0 235 C-0.33 235 -0.66 235 -1 235 C-1.17324251 206.21777633 -1.33604509 177.43551109 -1.48431293 148.65314728 C-1.50183422 145.25362773 -1.51944434 141.85410865 -1.53710938 138.45458984 C-1.54062461 137.77781877 -1.54413985 137.1010477 -1.5477616 136.40376842 C-1.60486028 125.45160726 -1.66915192 114.49949956 -1.736111 103.54739475 C-1.80467811 92.30602807 -1.86534176 81.06463744 -1.91914403 69.82318878 C-1.94960674 63.51051933 -1.98365387 57.19791505 -2.02626419 50.88531494 C-2.06626281 44.94289345 -2.09669458 39.00049951 -2.11981392 33.05798912 C-2.12997732 30.87792724 -2.14362527 28.69787837 -2.16103554 26.51786232 C-2.18430588 23.53847579 -2.19496825 20.55929589 -2.20254517 17.57983398 C-2.2122618 16.71989145 -2.22197843 15.85994892 -2.2319895 14.97394753 C-2.22870052 9.65394915 -1.48447915 5.11383654 0 0 Z " fill="#000C1A" transform="translate(4,118)"/>
<path d="M0 0 C1.65 0 3.3 0 5 0 C4.83734146 0.80555328 4.67468292 1.61110657 4.50709534 2.44107056 C3.9079896 6.64575336 3.86788457 10.70293565 3.88647461 14.94287109 C3.88632858 15.8215686 3.88618256 16.70026611 3.8860321 17.60559082 C3.88672587 20.49489861 3.8944931 23.38414104 3.90234375 26.2734375 C3.90420983 28.28268397 3.90563284 30.29193089 3.90663147 32.30117798 C3.91044164 37.57832098 3.9202591 42.85543627 3.93133545 48.13256836 C3.94158184 53.52196884 3.946136 58.91137382 3.95117188 64.30078125 C3.96188274 74.86719965 3.97894112 85.43359751 4 96 C3.01 96 2.02 96 1 96 C0.98969254 94.98744644 0.97938507 93.97489288 0.96876526 92.93165588 C0.87120265 83.41055996 0.76848529 73.8895319 0.66066074 64.36854649 C0.60538835 59.47317875 0.55196159 54.5778051 0.50268555 49.68237305 C0.45510549 44.96206724 0.40276525 40.24183646 0.34705925 35.5216198 C0.32660678 33.71663203 0.30789859 31.91162365 0.29092598 30.10659981 C0.26694571 27.58734784 0.23688289 25.06823902 0.20532227 22.54907227 C0.1995668 21.79525772 0.19381134 21.04144318 0.18788147 20.26478577 C0.4414287 16.84298079 0.4414287 16.84298079 -1 14 C-1.29356154 10.37940768 -0.85064319 8.12296038 1 5 C1.66 5 2.32 5 3 5 C2.2236068 1.9254644 2.2236068 1.9254644 0 0 Z " fill="#F8EFFD" transform="translate(353,263)"/>
<path d="M0 0 C2.125 0.9375 2.125 0.9375 4 2 C4 2.66 4 3.32 4 4 C-28.67 4 -61.34 4 -95 4 C-95.33 3.34 -95.66 2.68 -96 2 C-94.82680206 1.98969254 -93.65360413 1.97938507 -92.44485474 1.96876526 C-81.40831564 1.87116417 -70.3718346 1.76844291 -59.33539009 1.66066074 C-53.6609507 1.60540991 -47.98650617 1.55198646 -42.31201172 1.50268555 C-36.83958206 1.45507386 -31.36721651 1.40273223 -25.89486313 1.34705925 C-23.8032172 1.32662119 -21.71155368 1.30791055 -19.61987686 1.29092598 C-16.69850532 1.26691407 -13.77725568 1.23685515 -10.85595703 1.20532227 C-9.98417816 1.1995668 -9.11239929 1.19381134 -8.21420288 1.18788147 C-3.97204206 1.25324889 -3.97204206 1.25324889 0 0 Z " fill="#011C0F" transform="translate(314,256)"/>
<path d="M0 0 C3.96 0 7.92 0 12 0 C12 0.66 12 1.32 12 2 C9.69 2 7.38 2 5 2 C4.86722656 2.84304688 4.73445313 3.68609375 4.59765625 4.5546875 C4.42105469 5.65039062 4.24445313 6.74609375 4.0625 7.875 C3.88847656 8.96554687 3.71445312 10.05609375 3.53515625 11.1796875 C3 14 3 14 2 16 C1.89709329 17.33004516 1.85360158 18.66496404 1.84178162 19.99893188 C1.8319928 20.83468246 1.82220398 21.67043304 1.81211853 22.5315094 C1.80636307 23.45004196 1.8006076 24.36857452 1.79467773 25.31494141 C1.78477814 26.28083694 1.77487854 27.24673248 1.76467896 28.24189758 C1.73300784 31.44509401 1.70828435 34.64830528 1.68359375 37.8515625 C1.66302907 40.06831251 1.64203273 42.28505855 1.62062073 44.50180054 C1.56534988 50.34449051 1.51596273 56.18721616 1.46777344 62.02996826 C1.41759498 67.98876125 1.36188986 73.94750225 1.30664062 79.90625 C1.19899773 91.60412396 1.09807691 103.30204193 1 115 C16.345 114.505 16.345 114.505 32 114 C32.33 114.66 32.66 115.32 33 116 C22.11 116 11.22 116 0 116 C0 77.72 0 39.44 0 0 Z " fill="#C8CFD6" transform="translate(340,262)"/>
<path d="M0 0 C0.33 0 0.66 0 1 0 C0.93019456 0.61498541 0.86038912 1.22997082 0.78846836 1.86359215 C0.16416959 7.66313708 -0.16267711 13.38274509 -0.20532227 19.21337891 C-0.21522186 20.07315338 -0.22512146 20.93292786 -0.23532104 21.8187561 C-0.26655785 24.62133157 -0.29154153 27.4239239 -0.31640625 30.2265625 C-0.33700857 32.185256 -0.35800583 34.14394538 -0.37937927 36.10263062 C-0.43426172 41.22842041 -0.48381849 46.35424805 -0.53222656 51.48010254 C-0.58269045 56.72244589 -0.63824589 61.96473509 -0.69335938 67.20703125 C-0.80052644 77.47130777 -0.90206139 87.73563156 -1 98 C-1.66 97.67 -2.32 97.34 -3 97 C-3 66.64 -3 36.28 -3 5 C-2.34 5 -1.68 5 -1 5 C-0.67 3.35 -0.34 1.7 0 0 Z " fill="#F3C280" transform="translate(223,123)"/>
<path d="M0 0 C4.455 1.98 4.455 1.98 9 4 C9 4.66 9 5.32 9 6 C9.598125 6.26425781 10.19625 6.52851562 10.8125 6.80078125 C17.90108759 10.68684623 22.22484637 19.19427661 24.59199524 26.63742065 C26.0620524 31.68230772 26.40977759 36.25999147 26.34057617 41.48876953 C26.34123329 42.82232231 26.34123329 42.82232231 26.34190369 44.18281555 C26.33983555 47.08304833 26.31659901 49.98268237 26.29296875 52.8828125 C26.28736575 54.9087594 26.28309898 56.9347104 26.28010559 58.96066284 C26.26871224 64.26415448 26.23929298 69.56739528 26.20599365 74.87078857 C26.17517341 80.29403288 26.16157481 85.71731815 26.14648438 91.140625 C26.11441759 101.7605262 26.06328859 112.38024215 26 123 C25.67 123 25.34 123 25 123 C24.67 93.96 24.34 64.92 24 35 C23.34 35 22.68 35 22 35 C21.505 30.05 21.505 30.05 21 25 C20.67 25 20.34 25 20 25 C20 23.02 20 21.04 20 19 C19.34 19 18.68 19 18 19 C18 18.34 18 17.68 18 17 C17.34 17 16.68 17 16 17 C16 16.34 16 15.68 16 15 C14.68 15 13.36 15 12 15 C10.74335022 12.09399739 10 10.20395416 10 7 C8.35 7 6.7 7 5 7 C4.67 5.68 4.34 4.36 4 3 C2.68 3 1.36 3 0 3 C0 2.01 0 1.02 0 0 Z " fill="#CBA573" transform="translate(464,109)"/>
<path d="M0 0 C27.72 0 55.44 0 84 0 C84.495 1.98 84.495 1.98 85 4 C83.35 4 81.7 4 80 4 C80 3.34 80 2.68 80 2 C72.82825065 2.11774316 65.65664966 2.24257171 58.48510742 2.37231445 C56.0456827 2.41561209 53.60622868 2.45729083 51.16674805 2.49731445 C47.65925266 2.55514208 44.15190403 2.61880085 40.64453125 2.68359375 C39.00989677 2.70866249 39.00989677 2.70866249 37.34223938 2.73423767 C35.81121834 2.7641555 35.81121834 2.7641555 34.24926758 2.79467773 C33.35436111 2.81022202 32.45945465 2.8257663 31.53742981 2.84178162 C28.94746909 3.0032755 26.5294851 3.43263005 24 4 C23.855625 4.61875 23.71125 5.2375 23.5625 5.875 C23 8 23 8 22 10 C21.34 10 20.68 10 20 10 C20 10.66 20 11.32 20 12 C19.34 11.67 18.68 11.34 18 11 C19.65 8.36 21.3 5.72 23 3 C17.98391475 1.9823597 13.21391694 1.88143566 8.125 1.9375 C6.949375 1.94426758 6.949375 1.94426758 5.75 1.95117188 C3.83329986 1.96285907 1.91663952 1.98079092 0 2 C0 1.34 0 0.68 0 0 Z " fill="#A398CC" transform="translate(340,260)"/>
<path d="M0 0 C1.49080078 0.16628906 1.49080078 0.16628906 3.01171875 0.3359375 C3.77097656 0.43132812 4.53023437 0.52671875 5.3125 0.625 C4.9825 1.615 4.6525 2.605 4.3125 3.625 C3.19875 4.099375 2.085 4.57375 0.9375 5.0625 C-2.72218651 6.63995108 -3.53310647 7.50112938 -5.6875 10.625 C-6.6775 10.625 -7.6675 10.625 -8.6875 10.625 C-8.67702637 11.3048999 -8.66655273 11.9847998 -8.65576172 12.68530273 C-8.61379897 15.81099649 -8.58804709 18.93663066 -8.5625 22.0625 C-8.54574219 23.13177734 -8.52898437 24.20105469 -8.51171875 25.30273438 C-8.47675294 31.01964373 -8.78635862 36.1979318 -10.20654297 41.74194336 C-10.79459233 44.04429092 -11.0874171 46.32412953 -11.3125 48.6875 C-11.498125 50.6365625 -11.498125 50.6365625 -11.6875 52.625 C-12.0175 52.625 -12.3475 52.625 -12.6875 52.625 C-12.83264723 42.99690022 -12.64566203 33.37448081 -12.375 23.75 C-12.35252197 22.59781982 -12.33004395 21.44563965 -12.30688477 20.25854492 C-12.10171133 13.82559004 -11.82520979 7.40024099 -8.6875 1.625 C-5.1388865 -0.74074234 -4.1110475 -0.48365265 0 0 Z " fill="#B4A998" transform="translate(224.6875,109.375)"/>
<path d="M0 0 C2.52305464 3.78458196 2.24208966 6.73500685 2.16699219 11.11157227 C2.16074326 11.93785126 2.15449432 12.76413025 2.14805603 13.615448 C2.12455805 16.34931 2.08617258 19.08272899 2.046875 21.81640625 C2.02578282 23.71304167 2.00530343 25.609684 1.9854126 27.5063324 C1.9413791 31.48179187 1.8900068 35.45707193 1.83349609 39.43237305 C1.76152188 44.5359253 1.70755728 49.63947961 1.65903854 54.74330235 C1.61986783 58.65949997 1.57128565 62.57553694 1.51981354 66.4915905 C1.49619932 68.37388651 1.47552076 70.25622164 1.45778656 72.13858223 C1.43160992 74.76522974 1.39281839 77.39139057 1.35058594 80.01782227 C1.34528366 80.80073135 1.33998138 81.58364044 1.33451843 82.39027405 C1.22854269 87.77145731 1.22854269 87.77145731 -1 90 C-1.02312228 78.41311598 -1.0409145 66.82623741 -1.05181217 55.23933506 C-1.05704125 49.85966238 -1.06413935 44.48000542 -1.07543945 39.1003418 C-1.08626745 33.91325157 -1.09227665 28.72617651 -1.09487724 23.53907585 C-1.09673165 21.5554372 -1.10035256 19.57179942 -1.10573006 17.58816719 C-1.11293932 14.81990864 -1.11399099 12.05171362 -1.11352539 9.28344727 C-1.11712067 8.45482681 -1.12071594 7.62620636 -1.12442017 6.7724762 C-1.11405216 1.11405216 -1.11405216 1.11405216 0 0 Z " fill="#0C1037" transform="translate(491,278)"/>
<path d="M0 0 C0.99 0 1.98 0 3 0 C3 18.81 3 37.62 3 57 C2.67 57 2.34 57 2 57 C1.94465088 56.31897217 1.88930176 55.63794434 1.83227539 54.9362793 C1.57952368 51.85302403 1.32107872 48.77027182 1.0625 45.6875 C0.93198242 44.0797168 0.93198242 44.0797168 0.79882812 42.43945312 C0.71181641 41.41142578 0.62480469 40.38339844 0.53515625 39.32421875 C0.41732788 37.9024231 0.41732788 37.9024231 0.29711914 36.4519043 C0.06676896 33.86729743 0.06676896 33.86729743 -1 31 C-1.09415172 29.15160638 -1.13071121 27.30000753 -1.1328125 25.44921875 C-1.13410156 24.35802734 -1.13539063 23.26683594 -1.13671875 22.14257812 C-1.13285156 21.00240234 -1.12898437 19.86222656 -1.125 18.6875 C-1.12886719 17.55892578 -1.13273438 16.43035156 -1.13671875 15.26757812 C-1.13542969 14.17251953 -1.13414062 13.07746094 -1.1328125 11.94921875 C-1.13168457 10.95237061 -1.13055664 9.95552246 -1.12939453 8.9284668 C-0.9948421 5.88326598 -0.56009745 2.99376814 0 0 Z " fill="#F1EAD1" transform="translate(215,148)"/>
<path d="M0 0 C25.08 0 50.16 0 76 0 C76 0.33 76 0.66 76 1 C66.1 1.495 66.1 1.495 56 2 C56 2.33 56 2.66 56 3 C36.86 3 17.72 3 -2 3 C-1.34 2.67 -0.68 2.34 0 2 C0 1.34 0 0.68 0 0 Z " fill="#01191A" transform="translate(240,379)"/>
<path d="M0 0 C-0.33 1.65 -0.66 3.3 -1 5 C-1.495 4.01 -1.495 4.01 -2 3 C-20.81 3 -39.62 3 -59 3 C-59 2.34 -59 1.68 -59 1 C-51.60266794 0.86941006 -44.20533258 0.73900839 -36.80799294 0.60884857 C-33.37329573 0.54840744 -29.93859969 0.48790091 -26.50390625 0.42724609 C-22.55729506 0.35755394 -18.61067894 0.2881441 -14.6640625 0.21875 C-13.42757965 0.19687622 -12.1910968 0.17500244 -10.91714478 0.15246582 C-9.77611298 0.13244507 -8.63508118 0.11242432 -7.45947266 0.09179688 C-5.94723618 0.06514954 -5.94723618 0.06514954 -4.40444946 0.03796387 C-2.93642808 0.01478527 -1.46820436 0 0 0 Z " fill="#091232" transform="translate(426,257)"/>
<path d="M0 0 C0.82029694 -0.00137466 1.64059387 -0.00274933 2.48574829 -0.00416565 C3.83010201 0.00122726 3.83010201 0.00122726 5.20161438 0.00672913 C6.62141602 0.00651009 6.62141602 0.00651009 8.06990051 0.00628662 C11.20277691 0.00698405 14.33559406 0.01476853 17.46846008 0.02259827 C19.63893603 0.02446305 21.8094124 0.02588667 23.97988892 0.02688599 C29.69602111 0.03070641 35.41212795 0.04053267 41.12825012 0.05158997 C46.95974891 0.06181427 52.79125179 0.0663858 58.62275696 0.07142639 C70.06742957 0.08215534 81.51208334 0.0992261 92.95674133 0.12025452 C92.62674133 1.77025452 92.29674133 3.42025452 91.95674133 5.12025452 C90.63674133 4.46025452 89.31674133 3.80025452 87.95674133 3.12025452 C87.95674133 2.46025452 87.95674133 1.80025452 87.95674133 1.12025452 C76.69964357 1.22780724 65.44260936 1.34045115 54.18562794 1.45959377 C48.95855605 1.51475654 43.7314785 1.56816591 38.50434875 1.61756897 C33.45983759 1.66531055 28.41539329 1.71765686 23.37096214 1.77319527 C21.44647067 1.79357446 19.52196089 1.81229478 17.5974369 1.82932854 C14.90178948 1.85347085 12.20626746 1.88351184 9.51069641 1.91493225 C8.3173896 1.92356544 8.3173896 1.92356544 7.09997559 1.93237305 C4.0064112 1.97335579 1.13576684 2.08014794 -1.89038086 2.75808716 C-4.04325867 3.12025452 -4.04325867 3.12025452 -7.04325867 1.12025452 C-4.32957803 0.21569431 -2.7839816 -0.00360153 0 0 Z " fill="#89B0DB" transform="translate(80.04325866699219,105.87974548339844)"/>
<path d="M0 0 C0.33 0 0.66 0 1 0 C1.09294778 11.8052644 1.16389049 23.6104408 1.20724869 35.41599751 C1.22806533 40.8986389 1.25627437 46.38102874 1.30175781 51.86352539 C1.34542726 57.16091042 1.36918159 62.45805446 1.37950897 67.7556057 C1.38686259 69.77009051 1.40122197 71.7845631 1.42292023 73.79894447 C1.632422 94.06631296 1.632422 94.06631296 -3 103 C-3.33 103 -3.66 103 -4 103 C-4 101.35 -4 99.7 -4 98 C-3.34 98 -2.68 98 -2 98 C-2 95.36 -2 92.72 -2 90 C-1.34 90 -0.68 90 0 90 C0 60.3 0 30.6 0 0 Z " fill="#ECC795" transform="translate(488,142)"/>
<path d="M0 0 C7.69805949 0.44512589 13.65611502 7.55361276 18.6796875 12.796875 C23.11839349 17.93045828 25.43584661 21.07629926 26 28 C25.34 27.01 24.68 26.02 24 25 C23.34 25.66 22.68 26.32 22 27 C22 25 22 23 22 21 C21.01 20.67 20.02 20.34 19 20 C17.8125 16.9375 17.8125 16.9375 17 14 C15.68 14.33 14.36 14.66 13 15 C12.34 13.02 11.68 11.04 11 9 C9.35 9 7.7 9 6 9 C4.5393715 6.35261084 4 5.10551666 4 2 C2.02 2 0.04 2 -2 2 C-1.34 1.34 -0.68 0.68 0 0 Z " fill="#081220" transform="translate(477,92)"/>
<path d="M0 0 C-0.804375 0.45375 -1.60875 0.9075 -2.4375 1.375 C-5.08856572 2.74725665 -5.08856572 2.74725665 -6 5 C-6.66 5 -7.32 5 -8 5 C-8 6.32 -8 7.64 -8 9 C-8.66 9 -9.32 9 -10 9 C-10 9.66 -10 10.32 -10 11 C-10.66 11 -11.32 11 -12 11 C-12 11.66 -12 12.32 -12 13 C-12.804375 13.2475 -13.60875 13.495 -14.4375 13.75 C-17.171081 14.72238859 -17.171081 14.72238859 -17.8125 17.125 C-17.874375 17.74375 -17.93625 18.3625 -18 19 C-18.66 19 -19.32 19 -20 19 C-19.39254603 14.14036821 -17.27241033 10.2594482 -15 6 C-14.34 6 -13.68 6 -13 6 C-13 5.34 -13 4.68 -13 4 C-8.84581922 0.08320098 -5.58975905 -1.86325302 0 0 Z " fill="#EBCA98" transform="translate(240,109)"/>
<path d="M0 0 C0.66 0 1.32 0 2 0 C2 27.72 2 55.44 2 84 C1.67 84 1.34 84 1 84 C0.98969254 83.00441574 0.97938507 82.00883148 0.96876526 80.983078 C0.87109352 71.60976707 0.76836533 62.23652344 0.66066074 52.86332226 C0.60544937 48.04424012 0.55203217 43.2251519 0.50268555 38.40600586 C0.45501573 33.75701379 0.40267187 29.10809588 0.34705925 24.45919228 C0.32664758 22.68376825 0.30793253 20.9083239 0.29092598 19.132864 C0.26685573 16.64994318 0.2368047 14.16716251 0.20532227 11.68432617 C0.1995668 10.94705292 0.19381134 10.20977966 0.18788147 9.45016479 C0.14334586 6.36889166 -0.01796304 3.94611089 -1 1 C-0.67 0.67 -0.34 0.34 0 0 Z " fill="#0A1B2B" transform="translate(193,264)"/>
<path d="M0 0 C0 0.66 0 1.32 0 2 C1.32 2.33 2.64 2.66 4 3 C3.34 3 2.68 3 2 3 C2.495 5.475 2.495 5.475 3 8 C2.11626709 7.18958252 1.23253418 6.37916504 0.32202148 5.54418945 C-5.03353077 1.74540102 -10.80854905 2.27236216 -17.15234375 2.29296875 C-19.03524864 2.27028679 -19.03524864 2.27028679 -20.95619202 2.24714661 C-24.27242854 2.21156448 -27.58735951 2.19711828 -30.90368652 2.19311523 C-34.2959847 2.18374931 -37.68796457 2.14631457 -41.08007812 2.11132812 C-47.72005928 2.04849801 -54.35974521 2.01354578 -61 2 C-61 1.67 -61 1.34 -61 1 C-53.43776129 0.85666514 -45.87550376 0.71435685 -38.31323242 0.57275391 C-35.74193893 0.52448648 -33.17064981 0.47598617 -30.59936523 0.42724609 C-26.89828604 0.35713093 -23.19719184 0.28785995 -19.49609375 0.21875 C-17.77851112 0.18593933 -17.77851112 0.18593933 -16.02622986 0.15246582 C-10.6831233 0.05347099 -5.34403289 -0.02687132 0 0 Z " fill="#9A8BC4" transform="translate(436,376)"/>
<path d="M0 0 C0.66 0 1.32 0 2 0 C2 0.66 2 1.32 2 2 C2.66 2 3.32 2 4 2 C4 2.66 4 3.32 4 4 C9.27816959 5.799376 13.73244308 7.11220738 19.31933594 7.20532227 C20.38013367 7.22526749 21.4409314 7.24521271 22.53387451 7.26576233 C24.24187225 7.29083107 24.24187225 7.29083107 25.984375 7.31640625 C27.74047089 7.3475779 27.74047089 7.3475779 29.53204346 7.37937927 C33.27130269 7.44475628 37.01063205 7.50370491 40.75 7.5625 C43.2851635 7.60569647 45.82031991 7.64931112 48.35546875 7.69335938 C54.5702384 7.80042559 60.78507778 7.9022141 67 8 C67 8.33 67 8.66 67 9 C59.13506244 9.21929206 51.26979015 9.41412345 43.40380859 9.59204102 C40.72835845 9.65367612 38.0535866 9.72438979 35.37841797 9.79907227 C31.53112081 9.90550511 27.68381486 9.99180302 23.8359375 10.07421875 C22.64197357 10.11157639 21.44800964 10.14893402 20.21786499 10.18742371 C12.52920475 10.32633128 8.01925448 9.69107464 2.125 4.4375 C0 2 0 2 0 0 Z " fill="#B4A6DE" transform="translate(362,368)"/>
<path d="M0 0 C1.49080078 0.16628906 1.49080078 0.16628906 3.01171875 0.3359375 C3.77097656 0.43132812 4.53023437 0.52671875 5.3125 0.625 C5.3125 0.955 5.3125 1.285 5.3125 1.625 C4.39017578 1.75455078 4.39017578 1.75455078 3.44921875 1.88671875 C-1.85026062 2.66806957 -1.85026062 2.66806957 -5.625 6.1875 C-5.975625 6.991875 -6.32625 7.79625 -6.6875 8.625 C-7.6775 9.12 -7.6775 9.12 -8.6875 9.625 C-9.92509823 13.33779469 -10.04358897 16.93806346 -10.25 20.8125 C-10.29318359 21.56208984 -10.33636719 22.31167969 -10.38085938 23.08398438 C-10.48672685 24.93078375 -10.5875976 26.77786834 -10.6875 28.625 C-11.0175 28.625 -11.3475 28.625 -11.6875 28.625 C-12.25820193 9.03090031 -12.25820193 9.03090031 -8.6875 1.625 C-5.1388865 -0.74074234 -4.1110475 -0.48365265 0 0 Z " fill="#92897D" transform="translate(224.6875,109.375)"/>
<path d="M0 0 C0.66 0.33 1.32 0.66 2 1 C2 1.66 2 2.32 2 3 C3.61974559 4.71230248 5.2958946 6.37163262 7 8 C7.804375 8.9075 8.60875 9.815 9.4375 10.75 C12.36606943 13.32142682 14.16740329 13.73260953 18 14 C17.34 14.66 16.68 15.32 16 16 C16.99 16.66 17.98 17.32 19 18 C19 18.66 19 19.32 19 20 C12.33598097 19.25029786 8.4630685 14.66029083 4 10 C1.95421828 7.37034593 0.52187045 4.9912626 -1 2 C-0.67 1.34 -0.34 0.68 0 0 Z " fill="#0D1237" transform="translate(429,268)"/>
<path d="M0 0 C1.65 0 3.3 0 5 0 C4.76228882 1.23000732 4.76228882 1.23000732 4.51977539 2.48486328 C3.93924616 6.41086605 3.77367932 10.28238519 3.68359375 14.2421875 C3.66281265 15.01055939 3.64203156 15.77893127 3.62062073 16.57058716 C3.55566531 19.00530767 3.49649362 21.44012847 3.4375 23.875 C3.3942633 25.5338642 3.35064743 27.19271856 3.30664062 28.8515625 C3.20003997 32.90094104 3.0986233 36.95041963 3 41 C2.67 41 2.34 41 2 41 C1.93941406 39.70964844 1.87882812 38.41929687 1.81640625 37.08984375 C1.73194119 35.37238745 1.64729623 33.65493998 1.5625 31.9375 C1.52318359 31.08994141 1.48386719 30.24238281 1.44335938 29.36914062 C1.61957347 21.15686131 1.61957347 21.15686131 -1 14 C-1.29356154 10.37940768 -0.85064319 8.12296038 1 5 C1.66 5 2.32 5 3 5 C2.2236068 1.9254644 2.2236068 1.9254644 0 0 Z " fill="#F0E8F6" transform="translate(353,263)"/>
<path d="M0 0 C0.66 0.33 1.32 0.66 2 1 C-7.19103139 9.09686099 -7.19103139 9.09686099 -13.625 8.875 C-16.85458726 8.0376996 -18.57453359 7.2314291 -21 5 C-20.67 4.01 -20.34 3.02 -20 2 C-19.34 2 -18.68 2 -18 2 C-18 2.66 -18 3.32 -18 4 C-17.01 3.67 -16.02 3.34 -15 3 C-12.95703125 3.55859375 -12.95703125 3.55859375 -10.8125 4.4375 C-10.09707031 4.72496094 -9.38164062 5.01242187 -8.64453125 5.30859375 C-8.10183594 5.53675781 -7.55914062 5.76492188 -7 6 C-6.67 5.01 -6.34 4.02 -6 3 C-3.0625 1.25 -3.0625 1.25 0 0 Z " fill="#A59AD1" transform="translate(471,400)"/>
<path d="M0 0 C6.97096259 -0.37344442 11.70830358 0.85415179 18 4 C18.33 4.99 18.66 5.98 19 7 C20.65948148 8.01187895 22.32580562 9.0126546 24 10 C24 10.66 24 11.32 24 12 C24.66 12 25.32 12 26 12 C26.33 12.99 26.66 13.98 27 15 C26.34 15.66 25.68 16.32 25 17 C24.59007812 16.50628906 24.18015625 16.01257813 23.7578125 15.50390625 C23.21898437 14.86324219 22.68015625 14.22257812 22.125 13.5625 C21.59132813 12.92441406 21.05765625 12.28632812 20.5078125 11.62890625 C19.0777243 9.89194996 19.0777243 9.89194996 17 9 C17 8.34 17 7.68 17 7 C16.113125 6.731875 15.22625 6.46375 14.3125 6.1875 C11 5 11 5 8.5 3.4375 C5.64868214 1.79799223 3.24483276 1.37730613 0 1 C0 0.67 0 0.34 0 0 Z " fill="#1F180F" transform="translate(456,106)"/>
<path d="M0 0 C1.299375 0.00451172 2.59875 0.00902344 3.9375 0.01367188 C7.12504825 0.0253908 10.31249955 0.04179781 13.5 0.0625 C13.5 0.3925 13.5 0.7225 13.5 1.0625 C12.67274414 1.11784912 11.84548828 1.17319824 10.99316406 1.23022461 C7.91418347 1.4379542 4.83544633 1.64892016 1.75683594 1.86206055 C-0.22704389 1.99842212 -2.21117791 2.13106882 -4.1953125 2.26367188 C-6.07089844 2.39418945 -6.07089844 2.39418945 -7.984375 2.52734375 C-9.71252441 2.64517212 -9.71252441 2.64517212 -11.47558594 2.76538086 C-13.93850392 3.00733849 -16.13352355 3.36931538 -18.5 4.0625 C-18.5 4.7225 -18.5 5.3825 -18.5 6.0625 C-20.15 6.0625 -21.8 6.0625 -23.5 6.0625 C-22.84 5.0725 -22.18 4.0825 -21.5 3.0625 C-22.16 2.7325 -22.82 2.4025 -23.5 2.0625 C-19.19261079 -2.24488921 -5.53019898 -0.03653079 0 0 Z " fill="#D7BB93" transform="translate(258.5,105.9375)"/>
<path d="M0 0 C0.99 0.495 0.99 0.495 2 1 C2 2.32 2 3.64 2 5 C3.32 5.33 4.64 5.66 6 6 C6 6.99 6 7.98 6 9 C6.94978897 11.15028304 6.94978897 11.15028304 8 13 C8.66 12.67 9.32 12.34 10 12 C10.66 13.98 11.32 15.96 12 18 C11.34 18.66 10.68 19.32 10 20 C4.47806028 14.27558915 0 8.19296115 0 0 Z " fill="#040F1D" transform="translate(5,363)"/>
<path d="M0 0 C2.20805524 -0.0544452 4.41650554 -0.09299283 6.625 -0.125 C7.85476563 -0.14820313 9.08453125 -0.17140625 10.3515625 -0.1953125 C13.94316041 -0.0030428 16.66661175 0.69741444 20 2 C18.50078242 5.1137596 16.77720586 8.03799023 15 11 C14.31903578 12.32608822 13.64669414 13.65686601 13 15 C12.7937496 9.84374012 13.30069281 7.09792156 15 2 C10.05 1.67 5.1 1.34 0 1 C0 0.67 0 0.34 0 0 Z " fill="#BEBACA" transform="translate(343,261)"/>
<path d="M0 0 C0.70382812 0.16242188 1.40765625 0.32484375 2.1328125 0.4921875 C9.31142687 1.76360421 16.85137615 1.29974979 24 0 C24.33 0.66 24.66 1.32 25 2 C24.34 2 23.68 2 23 2 C23 2.66 23 3.32 23 4 C21.0085944 4.38133299 19.00720923 4.71325582 17 5 C16.67 4.67 16.34 4.34 16 4 C13.66702567 3.95907063 11.33294775 3.95758277 9 4 C9 4.33 9 4.66 9 5 C6.36 4.67 3.72 4.34 1 4 C0.67 2.68 0.34 1.36 0 0 Z " fill="#A499D2" transform="translate(447,288)"/>
<path d="M0 0 C3.63 0 7.26 0 11 0 C11 0.66 11 1.32 11 2 C8.69 2 6.38 2 4 2 C3.87882812 2.84304688 3.75765625 3.68609375 3.6328125 4.5546875 C3.46523438 5.65039062 3.29765625 6.74609375 3.125 7.875 C2.96257812 8.96554687 2.80015625 10.05609375 2.6328125 11.1796875 C2 14 2 14 0 16 C0 10.72 0 5.44 0 0 Z " fill="#CED4D7" transform="translate(341,262)"/>
<path d="M0 0 C0.66 0.33 1.32 0.66 2 1 C2 1.99 2 2.98 2 4 C2.66 4 3.32 4 4 4 C4 5.32 4 6.64 4 8 C4.66 8 5.32 8 6 8 C6 8.66 6 9.32 6 10 C6.66 10 7.32 10 8 10 C8.33 11.65 8.66 13.3 9 15 C5.41477124 13.52934075 3.55613904 11.59934458 1.1875 8.5625 C0.56230469 7.78003906 -0.06289062 6.99757812 -0.70703125 6.19140625 C-1.34705078 5.10666016 -1.34705078 5.10666016 -2 4 C-1 1 -1 1 0 0 Z " fill="#E1C594" transform="translate(220,220)"/>
<path d="M0 0 C1.98 0 3.96 0 6 0 C6.33 0.99 6.66 1.98 7 3 C8.65 3.33 10.3 3.66 12 4 C12 5.32 12 6.64 12 8 C14.97 8 17.94 8 21 8 C21 8.33 21 8.66 21 9 C14.42702902 9.4676422 10.22161521 9.49301774 5 5 C3.29671681 3.3707726 1.61838719 1.71358643 0 0 Z " fill="#B9D9A0" transform="translate(224,368)"/>
<path d="M0 0 C1.37562854 1.28965176 2.70766393 2.62689293 4 4 C4 4.66 4 5.32 4 6 C7.65079826 7.61064629 11.0507432 8.44894091 15 9 C15 9.66 15 10.32 15 11 C11.7 11 8.4 11 5 11 C5 10.34 5 9.68 5 9 C4.34 8.67 3.68 8.34 3 8 C3 7.01 3 6.02 3 5 C1.68 5 0.36 5 -1 5 C-0.67 3.35 -0.34 1.7 0 0 Z " fill="#091317" transform="translate(447,261)"/>
<path d="M0 0 C1.98 0.99 1.98 0.99 4 2 C4 2.66 4 3.32 4 4 C4.66 4 5.32 4 6 4 C6 4.66 6 5.32 6 6 C7.32 6 8.64 6 10 6 C10 6.66 10 7.32 10 8 C11.32 8.33 12.64 8.66 14 9 C14 9.33 14 9.66 14 10 C5.73913043 10.31772575 5.73913043 10.31772575 3 8 C2.25 4.875 2.25 4.875 2 2 C1.34 2 0.68 2 0 2 C0 1.34 0 0.68 0 0 Z " fill="#EABF89" transform="translate(226,228)"/>
<path d="M0 0 C-2.90092502 1.93395001 -3.89674737 2.30131941 -7.1875 2.625 C-8.445625 2.74875 -9.70375 2.8725 -11 3 C-10.67 3.33 -10.34 3.66 -10 4 C-10 4.66 -10 5.32 -10 6 C-13.4019487 8.09350689 -16.05272412 8.17942163 -20 8 C-18.03617993 6.49440461 -16.21736634 5.10868317 -14 4 C-14 3.01 -14 2.02 -14 1 C-11.76266993 -0.11866503 -10.04151924 -0.34005526 -7.5625 -0.625 C-6.78003906 -0.72039062 -5.99757813 -0.81578125 -5.19140625 -0.9140625 C-3 -1 -3 -1 0 0 Z " fill="#04111F" transform="translate(48,86)"/>
<path d="M0 0 C2 2 2 2 2 5 C0.1875 7.1875 0.1875 7.1875 -2 9 C-2.99 9 -3.98 9 -5 9 C-5.33 9.99 -5.66 10.98 -6 12 C-6 11.01 -6 10.02 -6 9 C-6.66 8.67 -7.32 8.34 -8 8 C-5.36 5.36 -2.72 2.72 0 0 Z " fill="#131C3F" transform="translate(478,395)"/>
<path d="M0 0 C0.33 0 0.66 0 1 0 C1 3.3 1 6.6 1 10 C0.34 10 -0.32 10 -1 10 C-1 11.98 -1 13.96 -1 16 C-2.32 16 -3.64 16 -5 16 C-4.54548816 14.26982492 -4.08621143 12.54090123 -3.625 10.8125 C-3.36976563 9.84957031 -3.11453125 8.88664063 -2.8515625 7.89453125 C-2.05233704 5.17789793 -1.0968638 2.60862825 0 0 Z " fill="#312519" transform="translate(489,232)"/>
<path d="M0 0 C1.45184478 4.53701494 2.23509196 8.18061476 2 13 C1.67 13 1.34 13 1 13 C0.67 11.35 0.34 9.7 0 8 C-0.99 8 -1.98 8 -3 8 C-4.4606285 5.35261084 -5 4.10551666 -5 1 C-3 0 -3 0 0 0 Z " fill="#0C1824" transform="translate(509,127)"/>
<path d="M0 0 C8.58 0 17.16 0 26 0 C25.01 0.99 24.02 1.98 23 3 C20.3671875 2.69140625 20.3671875 2.69140625 17 2 C14.04099839 1.86575287 11.08636435 1.9048748 8.125 1.9375 C6.949375 1.94426758 6.949375 1.94426758 5.75 1.95117188 C3.83329986 1.96285907 1.91663952 1.98079092 0 2 C0 1.34 0 0.68 0 0 Z " fill="#7B838D" transform="translate(340,260)"/>
<path d="M0 0 C2.20187672 2.20187672 3.28178929 4.22885682 4.6875 7 C5.14511719 7.886875 5.60273438 8.77375 6.07421875 9.6875 C6.37972656 10.450625 6.68523437 11.21375 7 12 C6.67 12.66 6.34 13.32 6 14 C5.01 14 4.02 14 3 14 C1.02103213 11.03154819 0.47758046 9.30541501 -0.1875 5.875 C-0.36667969 4.98554688 -0.54585938 4.09609375 -0.73046875 3.1796875 C-0.81941406 2.46039063 -0.90835937 1.74109375 -1 1 C-0.67 0.67 -0.34 0.34 0 0 Z " fill="#171B42" transform="translate(441,388)"/>
<path d="M0 0 C-0.90492188 0.47179687 -0.90492188 0.47179687 -1.828125 0.953125 C-6.1503191 3.26759023 -9.63905779 5.37018242 -13 9 C-13.66 9 -14.32 9 -15 9 C-15 8.01 -15 7.02 -15 6 C-14.34 6 -13.68 6 -13 6 C-13 5.34 -13 4.68 -13 4 C-8.84581922 0.08320098 -5.58975905 -1.86325302 0 0 Z " fill="#EEDFBF" transform="translate(240,109)"/>
<path d="M0 0 C2.97 0.33 5.94 0.66 9 1 C9 1.66 9 2.32 9 3 C2.25 7 2.25 7 0 7 C-0.93423645 3.98968256 -1.04449911 3.13349732 0 0 Z " fill="#10163A" transform="translate(470,281)"/>
<path d="M0 0 C3.875 0.875 3.875 0.875 5 2 C5.04063832 3.66617115 5.042721 5.33388095 5 7 C6.32 7 7.64 7 9 7 C9 8.32 9 9.64 9 11 C4.55092795 9.51697598 2.25420608 5.91714499 0 2 C0 1.34 0 0.68 0 0 Z " fill="#93B6D7" transform="translate(55,361)"/>
<path d="M0 0 C2.97 0.33 5.94 0.66 9 1 C8.34 1.66 7.68 2.32 7 3 C7.99 3.66 8.98 4.32 10 5 C10 5.66 10 6.32 10 7 C5.61537866 6.49890042 3.1999003 5.01704885 0 2 C0 1.34 0 0.68 0 0 Z " fill="#151A41" transform="translate(438,281)"/>
<path d="M0 0 C2.31 0 4.62 0 7 0 C7 0.66 7 1.32 7 2 C8.32 2.33 9.64 2.66 11 3 C10.34 3 9.68 3 9 3 C9.33 4.65 9.66 6.3 10 8 C9.52949219 7.65066406 9.05898438 7.30132812 8.57421875 6.94140625 C7.95160156 6.48636719 7.32898438 6.03132813 6.6875 5.5625 C6.07261719 5.11003906 5.45773437 4.65757812 4.82421875 4.19140625 C2.90322899 2.82663692 2.90322899 2.82663692 0 2 C0 1.34 0 0.68 0 0 Z " fill="#9F92CA" transform="translate(429,376)"/>
<path d="M0 0 C2.25245881 2.68841859 3.88213958 4.64641875 5 8 C4.34 8.66 3.68 9.32 3 10 C2.67 9.01 2.34 8.02 2 7 C1.34 7 0.68 7 0 7 C-0.33 7.66 -0.66 8.32 -1 9 C-2.0326802 6.21176345 -2.04509293 5.1322726 -1.0625 2.25 C-0.711875 1.5075 -0.36125 0.765 0 0 Z " fill="#A698D1" transform="translate(427,269)"/>
<path d="M0 0 C1.65 0 3.3 0 5 0 C4.34 6.93 3.68 13.86 3 21 C2.67 21 2.34 21 2 21 C1.67 15.72 1.34 10.44 1 5 C1.66 5 2.32 5 3 5 C2.2236068 1.9254644 2.2236068 1.9254644 0 0 Z " fill="#DBD6DF" transform="translate(353,263)"/>
<path d="M0 0 C-1.76043357 2.03839677 -2.94322557 2.97870959 -5.5 3.9375 C-8.38267624 5.1626374 -9.23894076 6.48420109 -11 9 C-11.66 9 -12.32 9 -13 9 C-12.33333333 7.66666667 -11.66666667 6.33333333 -11 5 C-10.71125 4.278125 -10.4225 3.55625 -10.125 2.8125 C-9 1 -9 1 -7.1875 0.25 C-4.77172869 -0.02608815 -2.42947614 -0.06748545 0 0 Z " fill="#BAB6AA" transform="translate(230,111)"/>
<path d="M0 0 C0.33 0 0.66 0 1 0 C1 3.96 1 7.92 1 12 C0.01 12 -0.98 12 -2 12 C-2 13.98 -2 15.96 -2 18 C-2.33 18 -2.66 18 -3 18 C-3.36517527 11.42684522 -2.13619737 6.20514474 0 0 Z " fill="#DED3B9" transform="translate(217,136)"/>
<path d="M0 0 C6.6 0 13.2 0 20 0 C20 0.99 20 1.98 20 3 C18.02 3 16.04 3 14 3 C14 2.34 14 1.68 14 1 C9.38 1 4.76 1 0 1 C0 0.67 0 0.34 0 0 Z " fill="#08121C" transform="translate(50,379)"/>
<path d="M0 0 C0.33663062 3.70293685 0.47736015 5.39534381 -1.875 8.375 C-4 10 -4 10 -6 10 C-6.33 9.01 -6.66 8.02 -7 7 C-5.8203125 5.17578125 -5.8203125 5.17578125 -4.125 3.3125 C-3.57070313 2.68988281 -3.01640625 2.06726563 -2.4453125 1.42578125 C-1 0 -1 0 0 0 Z " fill="#251E17" transform="translate(480,254)"/>
<path d="M0 0 C2 3 2 3 1.5 5.5625 C-0.49682206 8.80733585 -2.38298755 9.13506224 -6 10 C-4.02 6.7 -2.04 3.4 0 0 Z " fill="#1A1B43" transform="translate(485,384)"/>
<path d="M0 0 C5.78461538 3.44615385 5.78461538 3.44615385 6.875 6.25 C6.936875 7.11625 6.936875 7.11625 7 8 C6.01 8.33 5.02 8.66 4 9 C3.34 8.34 2.68 7.68 2 7 C2 6.01 2 5.02 2 4 C0.68 3.34 -0.64 2.68 -2 2 C-1.34 1.34 -0.68 0.68 0 0 Z " fill="#0E1738" transform="translate(434,380)"/>
<path d="M0 0 C0.268125 0.61875 0.53625 1.2375 0.8125 1.875 C1.95556848 4.2995233 1.95556848 4.2995233 5 6 C6.25 8.4375 6.25 8.4375 7 11 C6.67 11.99 6.34 12.98 6 14 C6 13.34 6 12.68 6 12 C5.34 12 4.68 12 4 12 C3.67 11.34 3.34 10.68 3 10 C2.34 10.66 1.68 11.32 1 12 C0.13443723 7.88857686 0 4.19161906 0 0 Z " fill="#0D1A28" transform="translate(194,358)"/>
<path d="M0 0 C0.99 0.33 1.98 0.66 3 1 C3 2.65 3 4.3 3 6 C3.66 6 4.32 6 5 6 C5 7.98 5 9.96 5 12 C5.66 12 6.32 12 7 12 C6.34 13.32 5.68 14.64 5 16 C4.73445313 15.25234375 4.46890625 14.5046875 4.1953125 13.734375 C3.84210938 12.74953125 3.48890625 11.7646875 3.125 10.75 C2.77695312 9.77546875 2.42890625 8.8009375 2.0703125 7.796875 C1.16725355 5.43705673 0.17921582 3.23094884 -1 1 C-0.67 0.67 -0.34 0.34 0 0 Z " fill="#2F2313" transform="translate(483,122)"/>
<path d="M0 0 C0.33333333 1.33333333 0.66666667 2.66666667 1 4 C1.185625 4.5775 1.37125 5.155 1.5625 5.75 C2.49829411 10.56265542 2.79563448 14.80654829 0 19 C-0.19476139 16.39619004 -0.38108614 13.79224467 -0.5625 11.1875 C-0.61857422 10.44951172 -0.67464844 9.71152344 -0.73242188 8.95117188 C-0.95769724 5.63211484 -1.06255812 3.18767436 0 0 Z " fill="#C7BFAD" transform="translate(216,120)"/>
<path d="M0 0 C-1.45255699 3.82946843 -3.42895561 5.12050295 -7 7 C-7.33 5.68 -7.66 4.36 -8 3 C-3.375 0 -3.375 0 0 0 Z " fill="#12193D" transform="translate(488,275)"/>
<path d="M0 0 C1.485 0.99 1.485 0.99 3 2 C3.1875 4.625 3.1875 4.625 3 7 C3.66 6.01 4.32 5.02 5 4 C5 6.31 5 8.62 5 11 C4.01 11.33 3.02 11.66 2 12 C1.01 8.37 0.02 4.74 -1 1 C-0.67 0.67 -0.34 0.34 0 0 Z " fill="#EAEBEB" transform="translate(345,339)"/>
<path d="M0 0 C3.26954202 0.56371414 4.82575883 1.49962266 7 4 C6.67 4.99 6.34 5.98 6 7 C5.67 6.34 5.34 5.68 5 5 C3.68 5 2.36 5 1 5 C1 4.34 1 3.68 1 3 C0.34 3 -0.32 3 -1 3 C-0.67 2.01 -0.34 1.02 0 0 Z " fill="#241C15" transform="translate(433,241)"/>
<path d="M0 0 C0.66 0 1.32 0 2 0 C2 0.66 2 1.32 2 2 C2.66 2 3.32 2 4 2 C4 2.66 4 3.32 4 4 C4.969375 4.28875 5.93875 4.5775 6.9375 4.875 C10 6 10 6 11 8 C8.8125 8.3125 8.8125 8.3125 6 8 C2.95424358 5.43879574 1.26493447 3.79480342 0 0 Z " fill="#B8A6D1" transform="translate(362,368)"/>
<path d="M0 0 C4.62 0.66 9.24 1.32 14 2 C14 2.33 14 2.66 14 3 C12.35 3.33 10.7 3.66 9 4 C9 4.33 9 4.66 9 5 C6.36 4.67 3.72 4.34 1 4 C0.67 2.68 0.34 1.36 0 0 Z " fill="#998CC8" transform="translate(447,288)"/>
<path d="M0 0 C4.455 1.98 4.455 1.98 9 4 C9 4.66 9 5.32 9 6 C9.66 6.33 10.32 6.66 11 7 C9.02 7 7.04 7 5 7 C4.67 5.68 4.34 4.36 4 3 C2.68 3 1.36 3 0 3 C0 2.01 0 1.02 0 0 Z " fill="#DAB98B" transform="translate(464,109)"/>
<path d="M0 0 C0 0.66 0 1.32 0 2 C-1.65848177 3.01351664 -3.32665961 4.01120795 -5 5 C-6.36984198 6.29579647 -7.7151049 7.61992749 -9 9 C-6.83333333 0 -6.83333333 0 0 0 Z " fill="#827B6E" transform="translate(223,109)"/>
<path d="M0 0 C0.33 0 0.66 0 1 0 C1 1.65 1 3.3 1 5 C0.67 5 0.34 5 0 5 C0 3.35 0 1.7 0 0 Z M-2 2 C-1.34 3.32 -0.68 4.64 0 6 C-1.375 8 -1.375 8 -3 10 C-3.66 10 -4.32 10 -5 10 C-4.74438677 7.6568787 -4.40729228 5.32156597 -4 3 C-3.34 2.67 -2.68 2.34 -2 2 Z " fill="#0B1739" transform="translate(493,368)"/>
<path d="M0 0 C0 2.97 0 5.94 0 9 C-0.33 7.68 -0.66 6.36 -1 5 C-2.98 5 -4.96 5 -7 5 C-2.25 0 -2.25 0 0 0 Z " fill="#A5A1D3" transform="translate(489,277)"/>
<path d="M0 0 C4.75 0.875 4.75 0.875 7 2 C7 2.66 7 3.32 7 4 C7.66 4 8.32 4 9 4 C9.33 4.99 9.66 5.98 10 7 C9.34 7.66 8.68 8.32 8 9 C7.59007812 8.51789063 7.18015625 8.03578125 6.7578125 7.5390625 C5.94957031 6.59160156 5.94957031 6.59160156 5.125 5.625 C4.59132813 4.99851562 4.05765625 4.37203125 3.5078125 3.7265625 C2.38567993 2.44163349 1.20628025 1.20628025 0 0 Z " fill="#322216" transform="translate(473,114)"/>
<path d="M0 0 C2.64 0.33 5.28 0.66 8 1 C8 1.33 8 1.66 8 2 C10.97 2.495 10.97 2.495 14 3 C14 3.33 14 3.66 14 4 C12.41705218 4.05437607 10.83355744 4.09296271 9.25 4.125 C8.36828125 4.14820313 7.4865625 4.17140625 6.578125 4.1953125 C3.8864142 3.99139502 2.30095026 3.36551721 0 2 C0 1.34 0 0.68 0 0 Z " fill="#020D1C" transform="translate(34,394)"/>
<path d="M0 0 C0 0.33 0 0.66 0 1 C-0.92232422 1.12955078 -0.92232422 1.12955078 -1.86328125 1.26171875 C-7.20753611 2.07491196 -7.20753611 2.07491196 -11.0625 5.625 C-11.371875 6.40875 -11.68125 7.1925 -12 8 C-12.6875 6.1875 -12.6875 6.1875 -13 4 C-9.62859789 -0.55139285 -5.25176588 -0.09908992 0 0 Z " fill="#A39B8D" transform="translate(230,110)"/>
<path d="M0 0 C0.66 0 1.32 0 2 0 C2.33 0.99 2.66 1.98 3 3 C3.99 3 4.98 3 6 3 C7.6875 5 7.6875 5 9 7 C8.01 7.33 7.02 7.66 6 8 C4.17578125 6.78515625 4.17578125 6.78515625 2.3125 5.0625 C1.68988281 4.49660156 1.06726563 3.93070312 0.42578125 3.34765625 C-0.04472656 2.90292969 -0.51523437 2.45820313 -1 2 C-0.67 1.34 -0.34 0.68 0 0 Z " fill="#010D1B" transform="translate(18,383)"/>
<path d="M0 0 C0.99 0 1.98 0 3 0 C4.80411967 2.75924185 5.0127245 3.88972103 4.625 7.25 C4.41875 8.1575 4.2125 9.065 4 10 C1.04816899 7.04816899 0.91336012 4.04488053 0 0 Z " fill="#061F42" transform="translate(177,368)"/>
<path d="M0 0 C-3.44833324 2.05257931 -5.31661591 3.0632763 -9.375 2.6875 C-10.24125 2.460625 -11.1075 2.23375 -12 2 C-9.74099507 -0.25900493 -9.05816925 -0.34458029 -6 -0.6875 C-4.948125 -0.81705078 -4.948125 -0.81705078 -3.875 -0.94921875 C-2 -1 -2 -1 0 0 Z " fill="#F0C794" transform="translate(467,266)"/>
<path d="M0 0 C3.96 0.99 3.96 0.99 8 2 C6.375 3.5625 6.375 3.5625 4 5 C0.75 4.6875 0.75 4.6875 -2 4 C-1.34 2.68 -0.68 1.36 0 0 Z " fill="#0D1A28" transform="translate(44,376)"/>
<path d="M0 0 C1.63001953 0.01353516 1.63001953 0.01353516 3.29296875 0.02734375 C4.12441406 0.03894531 4.95585938 0.05054687 5.8125 0.0625 C5.8125 0.3925 5.8125 0.7225 5.8125 1.0625 C3.87794546 1.45241022 1.93968172 1.82395349 0 2.1875 C-1.07894531 2.39632812 -2.15789062 2.60515625 -3.26953125 2.8203125 C-6.1875 3.0625 -6.1875 3.0625 -9.1875 1.0625 C-5.90230525 -0.03256492 -3.45086585 -0.03710608 0 0 Z " fill="#7699BF" transform="translate(82.1875,105.9375)"/>
<path d="M0 0 C7.42857143 -0.28571429 7.42857143 -0.28571429 11 2 C11 2.66 11 3.32 11 4 C9.68 4 8.36 4 7 4 C7 3.34 7 2.68 7 2 C4.36 2 1.72 2 -1 2 C-0.67 1.34 -0.34 0.68 0 0 Z " fill="#07101D" transform="translate(465,88)"/>
<path d="M0 0 C0.66 0.33 1.32 0.66 2 1 C1.25 8.75 1.25 8.75 -1 11 C-1.125 3.375 -1.125 3.375 0 0 Z " fill="#E1E6EA" transform="translate(342,267)"/>
<path d="M0 0 C2 3 2 3 2 7 C-0.64 7 -3.28 7 -6 7 C-6 6.67 -6 6.34 -6 6 C-4.35 6 -2.7 6 -1 6 C-0.67 4.02 -0.34 2.04 0 0 Z " fill="#89AAD3" transform="translate(177,370)"/>
<path d="M0 0 C0.99 0.99 1.98 1.98 3 3 C1.68 5.31 0.36 7.62 -1 10 C-1.33 10 -1.66 10 -2 10 C-2 8.35 -2 6.7 -2 5 C-1.34 5 -0.68 5 0 5 C0 3.35 0 1.7 0 0 Z " fill="#DDB686" transform="translate(482,243)"/>
<path d="M0 0 C3.26954202 0.56371414 4.82575883 1.49962266 7 4 C5.1875 4.625 5.1875 4.625 3 5 C2.01 4.34 1.02 3.68 0 3 C0 2.01 0 1.02 0 0 Z " fill="#CEB58E" transform="translate(451,264)"/>
<path d="M0 0 C1.37562854 1.28965176 2.70766393 2.62689293 4 4 C4 4.66 4 5.32 4 6 C4.66 6.33 5.32 6.66 6 7 C5.01 7 4.02 7 3 7 C3 6.34 3 5.68 3 5 C1.68 5 0.36 5 -1 5 C-0.67 3.35 -0.34 1.7 0 0 Z " fill="#2D261E" transform="translate(447,261)"/>
<path d="M0 0 C-1.32 0.33 -2.64 0.66 -4 1 C-4 1.66 -4 2.32 -4 3 C-5.65 3 -7.3 3 -9 3 C-5.83583464 -0.30799106 -4.50236011 -1.35070803 0 0 Z " fill="#EAC692" transform="translate(244,109)"/>
<path d="M0 0 C0 1.32 0 2.64 0 4 C-1.98 4.33 -3.96 4.66 -6 5 C-5.625 3.0625 -5.625 3.0625 -5 1 C-3 0 -3 0 0 0 Z " fill="#0E1A27" transform="translate(34,88)"/>
</svg>
